<?xml version="1.0" encoding="utf-8"?>
<!-- Generator: Adobe Illustrator 26.2.1, SVG Export Plug-In . SVG Version: 6.00 Build 0)  -->
<svg version="1.1" id="Layer_1" xmlns="http://www.w3.org/2000/svg" xmlns:xlink="http://www.w3.org/1999/xlink" x="0px" y="0px"
	 viewBox="0 0 1752.1 510.49" style="enable-background:new 0 0 1752.1 510.49;" xml:space="preserve">
<style type="text/css">
	.st0{display:none;fill:#FFFFFF;}
	.st1{fill:#DCEEFF;}
	.st2{fill:#E6A58C;}
	.st3{fill:none;stroke:#823348;stroke-linecap:round;stroke-linejoin:round;stroke-miterlimit:10;}
	.st4{fill:none;stroke:#823348;stroke-width:3;stroke-linecap:round;stroke-linejoin:round;stroke-miterlimit:10;}
	.st5{fill:#E6A58C;stroke:#823348;stroke-miterlimit:10;}
	.st6{fill:#E5A38C;stroke:#823348;stroke-miterlimit:10;}
	.st7{fill:#E5A38C;stroke:#823348;stroke-width:3;stroke-linecap:round;stroke-linejoin:round;stroke-miterlimit:10;}
	.st8{fill:#E5A38C;stroke:#823348;stroke-linecap:round;stroke-linejoin:round;stroke-miterlimit:10;}
	.st9{fill:#FFFFFF;stroke:#823348;stroke-miterlimit:10;}
	.st10{fill:#E5A38C;}
	.st11{fill:#CB783D;}
</style>
<rect x="-4.74" y="572.82" class="st0" width="1791.6" height="751.82"/>
<g>
	<path class="st1" d="M1407.84,16.4c-66.19-4.62-81.48,95.44-26.44,103.32C1426.39,126.16,1492.5,22.32,1407.84,16.4z"/>
	<path class="st1" d="M494.79,63.15c-32.04,49.9,31.6,167.68,105.63,63.31C652.83,52.57,543.06-12.04,494.79,63.15z"/>
	<path class="st1" d="M36.86,509.13C17.8,429.38,0.34,248.86,131.41,183.96c192.48-95.31,330.19,92.81,447.92,64.58
		C697.07,220.31,844.5-15.57,1040.84,0.81c225.24,18.79,201.83,258.78,378.14,214.15c285.73-72.33,355.02,154.5,282.16,294.17
		C1353.34,509.13,36.86,509.13,36.86,509.13z"/>
</g>
<g>
	<g>
		<g>
			<path class="st2" d="M1376.71,488.84c1.64,10.31,2.89,18.15,3.3,20.72c2.02,0,5.8,0,5.8,0s-0.8-8.94-1.99-21.66L1376.71,488.84z"
				/>
			<path class="st2" d="M1322.34,509.56c0,0,4.19,0,5.8,0c0.41-2.57,1.66-10.4,3.3-20.72l-7.11-0.94
				C1323.14,500.63,1322.34,509.56,1322.34,509.56z"/>
			<path class="st2" d="M1512.73,284.45c1.3,3.65,5.2,5.76,9.01,4.74c4.01-1.07,6.38-5.19,5.31-9.2c-1.07-4.01-5.19-6.38-9.2-5.31
				c-3.83,1.03-6.16,4.83-5.43,8.67c-3.7-13.65-9.1-26.6-15.99-38.6c2.18,3.25,6.54,4.3,9.98,2.31c3.59-2.07,4.82-6.67,2.75-10.26
				c-2.07-3.59-6.67-4.82-10.26-2.75c-3.48,2.01-4.74,6.39-2.92,9.93c-7.17-12.32-15.89-23.63-25.9-33.65
				c-10.02-10.01-21.32-18.73-33.65-25.9c3.54,1.82,7.92,0.56,9.93-2.92c2.07-3.59,0.84-8.19-2.75-10.26
				c-3.59-2.07-8.19-0.84-10.26,2.75c-1.99,3.44-0.93,7.79,2.31,9.98c-11.99-6.89-24.94-12.3-38.6-15.99
				c3.83,0.74,7.64-1.6,8.67-5.43c1.07-4.01-1.3-8.13-5.31-9.2c-4.01-1.07-8.13,1.3-9.2,5.31c-1.02,3.81,1.08,7.72,4.74,9.01
				c-13.37-3.52-27.41-5.41-41.89-5.41s-28.52,1.88-41.89,5.41c3.66-1.3,5.76-5.2,4.74-9.01c-1.07-4.01-5.19-6.38-9.2-5.31
				c-4.01,1.07-6.38,5.19-5.31,9.2c1.03,3.83,4.83,6.16,8.67,5.43c-13.65,3.7-26.6,9.1-38.6,15.99c3.25-2.18,4.3-6.54,2.31-9.98
				c-2.07-3.59-6.67-4.82-10.26-2.75c-3.59,2.07-4.82,6.67-2.75,10.26c2.01,3.48,6.39,4.74,9.93,2.92
				c-12.32,7.17-23.63,15.89-33.65,25.9c-10.02,10.01-18.73,21.32-25.9,33.65c1.82-3.54,0.56-7.92-2.92-9.93
				c-3.59-2.07-8.19-0.84-10.26,2.75s-0.84,8.19,2.75,10.26c3.44,1.99,7.8,0.93,9.98-2.31c-6.89,11.99-12.29,24.94-15.99,38.6
				c0.74-3.83-1.6-7.64-5.43-8.67c-4.01-1.07-8.13,1.3-9.2,5.31c-1.07,4.01,1.3,8.13,5.31,9.2c3.81,1.02,7.72-1.08,9.01-4.74
				c-3.52,13.37-5.41,27.41-5.41,41.89c0,14.48,1.88,28.52,5.41,41.89c-1.3-3.65-5.2-5.76-9.01-4.74c-4.01,1.07-6.38,5.19-5.31,9.2
				c1.07,4.01,5.19,6.38,9.2,5.31c3.83-1.03,6.16-4.83,5.43-8.67c3.7,13.65,9.1,26.6,15.99,38.6c-2.18-3.25-6.54-4.3-9.98-2.31
				c-3.59,2.07-4.82,6.67-2.75,10.26s6.67,4.82,10.26,2.75c3.48-2.01,4.74-6.39,2.92-9.93c7.17,12.32,15.89,23.63,25.9,33.65
				c10.02,10.02,21.32,18.73,33.65,25.9c-3.54-1.82-7.92-0.57-9.93,2.92c-2.07,3.59-0.84,8.19,2.75,10.26
				c3.59,2.07,8.19,0.84,10.26-2.75c1.99-3.44,0.93-7.8-2.31-9.98c11.99,6.89,24.95,12.3,38.6,15.99c-3.83-0.74-7.64,1.6-8.67,5.43
				c-1.07,4.01,1.3,8.13,5.31,9.2c4.01,1.07,8.13-1.3,9.2-5.31c1.02-3.81-1.08-7.72-4.74-9.01c13.37,3.52,27.41,5.41,41.89,5.41
				s28.52-1.88,41.89-5.41c-3.65,1.3-5.76,5.2-4.74,9.01c1.07,4.01,5.19,6.38,9.2,5.31c4.01-1.07,6.38-5.19,5.31-9.2
				c-1.03-3.83-4.83-6.16-8.67-5.43c13.65-3.7,26.61-9.1,38.6-15.99c-3.25,2.18-4.3,6.54-2.31,9.98c2.07,3.59,6.67,4.82,10.26,2.75
				c3.59-2.07,4.82-6.67,2.75-10.26c-2.01-3.48-6.39-4.74-9.93-2.92c12.32-7.17,23.63-15.89,33.65-25.9
				c10.01-10.02,18.73-21.32,25.9-33.65c-1.82,3.54-0.56,7.92,2.92,9.93c3.59,2.07,8.19,0.84,10.26-2.75
				c2.07-3.59,0.84-8.19-2.75-10.26c-3.44-1.99-7.79-0.93-9.98,2.31c6.89-11.99,12.3-24.94,15.99-38.6
				c-0.74,3.83,1.6,7.64,5.43,8.67c4.01,1.07,8.13-1.3,9.2-5.31c1.07-4.01-1.3-8.13-5.31-9.2c-3.81-1.02-7.72,1.08-9.01,4.74
				c3.52-13.37,5.41-27.41,5.41-41.89C1518.13,311.86,1516.25,297.82,1512.73,284.45z"/>
			<path class="st2" d="M1361.59,154.77c0-4.15-3.36-7.51-7.51-7.51c-4.15,0-7.51,3.36-7.51,7.51c0,4.15,3.36,7.51,7.51,7.51
				C1358.22,162.28,1361.59,158.92,1361.59,154.77z"/>
			<path class="st2" d="M1238.07,199.71c-2.93-2.93-7.69-2.93-10.62,0c-2.93,2.93-2.93,7.69,0,10.62c2.93,2.93,7.69,2.93,10.62,0
				C1241,207.4,1241,202.64,1238.07,199.71z"/>
			<circle class="st2" cx="1182.51" cy="326.34" r="7.51"/>
			<path class="st2" d="M1227.45,442.34c-2.93,2.93-2.93,7.69,0,10.62c2.93,2.93,7.69,2.93,10.62,0c2.93-2.93,2.93-7.69,0-10.62
				C1235.14,439.41,1230.38,439.41,1227.45,442.34z"/>
			<path class="st2" d="M1346.56,497.91c0,4.15,3.36,7.51,7.51,7.51c4.15,0,7.51-3.36,7.51-7.51c0-4.15-3.36-7.51-7.51-7.51
				C1349.93,490.39,1346.56,493.76,1346.56,497.91z"/>
			<path class="st2" d="M1470.08,452.97c2.93,2.93,7.69,2.93,10.62,0c2.93-2.93,2.93-7.69,0-10.62c-2.93-2.93-7.69-2.93-10.62,0
				C1467.15,445.28,1467.15,450.03,1470.08,452.97z"/>
			
				<ellipse transform="matrix(0.3809 -0.9246 0.9246 0.3809 642.7384 1612.6361)" class="st2" cx="1525.64" cy="326.34" rx="7.51" ry="7.51"/>
			<path class="st2" d="M1480.7,210.33c2.93-2.93,2.93-7.69,0-10.62c-2.93-2.93-7.69-2.93-10.62,0c-2.93,2.93-2.93,7.69,0,10.62
				C1473.01,213.27,1477.77,213.27,1480.7,210.33z"/>
		</g>
		<g>
			
				<ellipse transform="matrix(0.7071 -0.7071 0.7071 0.7071 165.8437 1053.0583)" class="st3" cx="1354.08" cy="326.34" rx="145.05" ry="145.05"/>
			<path class="st3" d="M1381.99,468.71c-2.33-24.1-5.18-51.91-6.87-62.51c-2.92-18.27-12.95-69.19-14.89-78.99
				c0.04-0.29,0.07-0.58,0.07-0.88c0-3.44-2.79-6.23-6.23-6.23c-3.44,0-6.23,2.79-6.23,6.23c0,0.3,0.03,0.59,0.07,0.88
				c-1.94,9.8-11.96,60.72-14.89,78.99c-1.69,10.6-4.54,38.4-6.87,62.51"/>
			<g>
				<path class="st3" d="M1376.71,488.84c1.64,10.31,2.89,18.15,3.3,20.72c2.02,0,5.8,0,5.8,0s-0.8-8.94-1.99-21.66"/>
				<path class="st3" d="M1334.43,470.07c3.76-23.58,8.09-50.7,9.77-61.24c2.61-16.34,6.97-60.29,8.94-76.27l-0.06-0.09
					c0.32,0.05,0.65,0.09,0.99,0.09c0.31,0,0.62-0.03,0.92-0.08l0,0c1.96,15.91,6.33,59.97,8.95,76.34
					c1.69,10.55,6.01,37.67,9.77,61.25"/>
				<path class="st3" d="M1324.33,487.9c-1.19,12.73-1.99,21.66-1.99,21.66s4.19,0,5.8,0c0.41-2.57,1.66-10.4,3.3-20.72"/>
			</g>
			<g>
				<g>
					<line class="st3" x1="1363.67" y1="181.6" x2="1354.08" y2="162.28"/>
					<line class="st3" x1="1344.48" y1="181.6" x2="1354.08" y2="162.28"/>
				</g>
				<g>
					<line class="st3" x1="1338.39" y1="182.13" x2="1325.59" y2="164.77"/>
					<line class="st3" x1="1319.5" y1="185.46" x2="1325.59" y2="164.77"/>
				</g>
				<g>
					<line class="st3" x1="1313.58" y1="187.04" x2="1297.97" y2="172.18"/>
					<line class="st3" x1="1295.56" y1="193.61" x2="1297.97" y2="172.18"/>
				</g>
				<g>
					<line class="st3" x1="1290.01" y1="196.19" x2="1272.05" y2="184.26"/>
					<line class="st3" x1="1273.4" y1="205.78" x2="1272.05" y2="184.26"/>
				</g>
				<g>
					<line class="st3" x1="1268.38" y1="209.29" x2="1248.62" y2="200.66"/>
					<line class="st3" x1="1253.69" y1="221.62" x2="1248.62" y2="200.66"/>
				</g>
				<g>
					<line class="st3" x1="1249.36" y1="225.95" x2="1228.4" y2="220.89"/>
					<line class="st3" x1="1237.03" y1="240.65" x2="1228.4" y2="220.89"/>
				</g>
				<g>
					<line class="st3" x1="1233.52" y1="245.66" x2="1212" y2="244.31"/>
					<line class="st3" x1="1223.93" y1="262.27" x2="1212" y2="244.31"/>
				</g>
				<g>
					<line class="st3" x1="1221.34" y1="267.82" x2="1199.91" y2="270.23"/>
					<line class="st3" x1="1214.78" y1="285.85" x2="1199.91" y2="270.23"/>
				</g>
				<g>
					<line class="st3" x1="1213.2" y1="291.76" x2="1192.51" y2="297.85"/>
					<line class="st3" x1="1209.87" y1="310.65" x2="1192.51" y2="297.85"/>
				</g>
				<g>
					<line class="st3" x1="1209.33" y1="316.75" x2="1190.02" y2="326.34"/>
					<line class="st3" x1="1209.33" y1="335.93" x2="1190.02" y2="326.34"/>
				</g>
				<g>
					<line class="st3" x1="1209.87" y1="342.03" x2="1192.51" y2="354.83"/>
					<line class="st3" x1="1213.2" y1="360.92" x2="1192.51" y2="354.83"/>
				</g>
				<g>
					<line class="st3" x1="1214.78" y1="366.83" x2="1199.91" y2="382.45"/>
					<line class="st3" x1="1221.34" y1="384.86" x2="1199.91" y2="382.45"/>
				</g>
				<g>
					<line class="st3" x1="1223.93" y1="390.4" x2="1212" y2="408.37"/>
					<line class="st3" x1="1233.52" y1="407.02" x2="1212" y2="408.37"/>
				</g>
				<g>
					<line class="st3" x1="1237.03" y1="412.03" x2="1228.4" y2="431.79"/>
					<line class="st3" x1="1249.36" y1="426.72" x2="1228.4" y2="431.79"/>
				</g>
				<g>
					<line class="st3" x1="1253.69" y1="431.05" x2="1248.62" y2="452.01"/>
					<line class="st3" x1="1268.38" y1="443.38" x2="1248.62" y2="452.01"/>
				</g>
				<g>
					<line class="st3" x1="1273.4" y1="446.89" x2="1272.05" y2="468.41"/>
					<line class="st3" x1="1290.01" y1="456.48" x2="1272.05" y2="468.41"/>
				</g>
				<g>
					<line class="st3" x1="1295.56" y1="459.07" x2="1297.97" y2="480.5"/>
					<line class="st3" x1="1313.58" y1="465.63" x2="1297.97" y2="480.5"/>
				</g>
				<g>
					<line class="st3" x1="1319.5" y1="467.22" x2="1325.59" y2="487.9"/>
					<line class="st3" x1="1338.39" y1="470.55" x2="1325.59" y2="487.9"/>
				</g>
				<g>
					<line class="st3" x1="1344.48" y1="471.08" x2="1354.08" y2="490.39"/>
					<line class="st3" x1="1363.67" y1="471.08" x2="1354.08" y2="490.39"/>
				</g>
				<g>
					<line class="st3" x1="1369.76" y1="470.55" x2="1382.56" y2="487.9"/>
					<line class="st3" x1="1388.66" y1="467.22" x2="1382.56" y2="487.9"/>
				</g>
				<g>
					<line class="st3" x1="1394.57" y1="465.63" x2="1410.19" y2="480.5"/>
					<line class="st3" x1="1412.59" y1="459.07" x2="1410.19" y2="480.5"/>
				</g>
				<g>
					<line class="st3" x1="1418.14" y1="456.48" x2="1436.1" y2="468.41"/>
					<line class="st3" x1="1434.75" y1="446.89" x2="1436.1" y2="468.41"/>
				</g>
				<g>
					<line class="st3" x1="1439.77" y1="443.38" x2="1459.53" y2="452.01"/>
					<line class="st3" x1="1454.46" y1="431.05" x2="1459.53" y2="452.01"/>
				</g>
				<g>
					<line class="st3" x1="1458.79" y1="426.72" x2="1479.75" y2="431.79"/>
					<line class="st3" x1="1471.12" y1="412.03" x2="1479.75" y2="431.79"/>
				</g>
				<g>
					<line class="st3" x1="1474.63" y1="407.02" x2="1496.15" y2="408.37"/>
					<line class="st3" x1="1484.22" y1="390.4" x2="1496.15" y2="408.37"/>
				</g>
				<g>
					<line class="st3" x1="1486.81" y1="384.86" x2="1508.24" y2="382.45"/>
					<line class="st3" x1="1493.37" y1="366.83" x2="1508.24" y2="382.45"/>
				</g>
				<g>
					<line class="st3" x1="1494.95" y1="360.92" x2="1515.64" y2="354.83"/>
					<line class="st3" x1="1498.28" y1="342.03" x2="1515.64" y2="354.83"/>
				</g>
				<g>
					<line class="st3" x1="1498.82" y1="335.93" x2="1518.13" y2="326.34"/>
					<line class="st3" x1="1498.82" y1="316.75" x2="1518.13" y2="326.34"/>
				</g>
				<g>
					<line class="st3" x1="1498.28" y1="310.65" x2="1515.64" y2="297.85"/>
					<line class="st3" x1="1494.95" y1="291.76" x2="1515.64" y2="297.85"/>
				</g>
				<g>
					<line class="st3" x1="1493.37" y1="285.85" x2="1508.24" y2="270.23"/>
					<line class="st3" x1="1486.81" y1="267.82" x2="1508.24" y2="270.23"/>
				</g>
				<g>
					<line class="st3" x1="1484.22" y1="262.27" x2="1496.15" y2="244.31"/>
					<line class="st3" x1="1474.63" y1="245.66" x2="1496.15" y2="244.31"/>
				</g>
				<g>
					<line class="st3" x1="1471.12" y1="240.65" x2="1479.75" y2="220.89"/>
					<line class="st3" x1="1458.79" y1="225.95" x2="1479.75" y2="220.89"/>
				</g>
				<g>
					<line class="st3" x1="1454.46" y1="221.62" x2="1459.53" y2="200.66"/>
					<line class="st3" x1="1439.77" y1="209.29" x2="1459.53" y2="200.66"/>
				</g>
				<g>
					<line class="st3" x1="1434.75" y1="205.78" x2="1436.1" y2="184.26"/>
					<line class="st3" x1="1418.14" y1="196.19" x2="1436.1" y2="184.26"/>
				</g>
				<g>
					<line class="st3" x1="1412.59" y1="193.61" x2="1410.19" y2="172.18"/>
					<line class="st3" x1="1394.57" y1="187.04" x2="1410.19" y2="172.18"/>
				</g>
				<g>
					<line class="st3" x1="1388.66" y1="185.46" x2="1382.56" y2="164.77"/>
					<line class="st3" x1="1369.76" y1="182.13" x2="1382.56" y2="164.77"/>
				</g>
			</g>
		</g>
		<g>
			
				<ellipse transform="matrix(0.7071 -0.7071 0.7071 0.7071 165.8437 1053.0583)" class="st4" cx="1354.08" cy="326.34" rx="164.06" ry="164.06"/>
			<g>
				<circle class="st4" cx="1354.08" cy="154.77" r="7.51"/>
				<path class="st4" d="M1316.93,158.67c1.07,4.01-1.3,8.13-5.31,9.2c-4.01,1.07-8.13-1.3-9.2-5.31c-1.07-4.01,1.3-8.13,5.31-9.2
					C1311.73,152.29,1315.85,154.67,1316.93,158.67z"/>
				<path class="st4" d="M1274.8,174c2.07,3.59,0.84,8.19-2.75,10.26c-3.59,2.07-8.19,0.84-10.26-2.75
					c-2.07-3.59-0.84-8.19,2.75-10.26C1268.13,169.18,1272.72,170.41,1274.8,174z"/>
				<path class="st4" d="M1238.07,199.71c2.93,2.93,2.93,7.69,0,10.62c-2.93,2.93-7.69,2.93-10.62,0c-2.93-2.93-2.93-7.69,0-10.62
					C1230.38,196.78,1235.14,196.78,1238.07,199.71z"/>
				<path class="st4" d="M1209.25,234.05c3.59,2.07,4.82,6.67,2.75,10.26c-2.07,3.59-6.67,4.82-10.26,2.75
					c-3.59-2.07-4.82-6.67-2.75-10.26C1201.06,233.21,1205.66,231.98,1209.25,234.05z"/>
				<path class="st4" d="M1190.3,274.68c4.01,1.07,6.38,5.19,5.31,9.2c-1.07,4.01-5.19,6.38-9.2,5.31c-4.01-1.07-6.38-5.19-5.31-9.2
					C1182.17,275.98,1186.29,273.6,1190.3,274.68z"/>
				<circle class="st4" cx="1182.51" cy="326.34" r="7.51"/>
				<path class="st4" d="M1186.41,363.49c4.01-1.07,8.13,1.3,9.2,5.31c1.07,4.01-1.3,8.13-5.31,9.2c-4.01,1.07-8.13-1.3-9.2-5.31
					C1180.03,368.68,1182.4,364.56,1186.41,363.49z"/>
				<path class="st4" d="M1201.74,405.62c3.59-2.07,8.19-0.84,10.26,2.75c2.07,3.59,0.84,8.19-2.75,10.26
					c-3.59,2.07-8.19,0.84-10.26-2.75C1196.92,412.28,1198.15,407.69,1201.74,405.62z"/>
				<path class="st4" d="M1227.45,442.34c2.93-2.93,7.69-2.93,10.62,0c2.93,2.93,2.93,7.69,0,10.62c-2.93,2.93-7.69,2.93-10.62,0
					C1224.52,450.03,1224.52,445.28,1227.45,442.34z"/>
				<path class="st4" d="M1261.79,471.16c2.07-3.59,6.67-4.82,10.26-2.75c3.59,2.07,4.82,6.67,2.75,10.26s-6.67,4.82-10.26,2.75
					C1260.94,479.35,1259.71,474.76,1261.79,471.16z"/>
				<path class="st4" d="M1302.42,490.12c1.07-4.01,5.19-6.38,9.2-5.31c4.01,1.07,6.38,5.19,5.31,9.2c-1.07,4.01-5.19,6.38-9.2,5.31
					C1303.72,498.24,1301.34,494.12,1302.42,490.12z"/>
				<circle class="st4" cx="1354.08" cy="497.91" r="7.51"/>
				<path class="st4" d="M1391.23,494c-1.07-4.01,1.3-8.13,5.31-9.2c4.01-1.07,8.13,1.3,9.2,5.31c1.07,4.01-1.3,8.13-5.31,9.2
					C1396.42,500.39,1392.3,498.01,1391.23,494z"/>
				<path class="st4" d="M1433.35,478.68c-2.07-3.59-0.84-8.19,2.75-10.26s8.19-0.84,10.26,2.75c2.07,3.59,0.84,8.19-2.75,10.26
					C1440.02,483.5,1435.43,482.27,1433.35,478.68z"/>
				<path class="st4" d="M1470.08,452.97c-2.93-2.93-2.93-7.69,0-10.62c2.93-2.93,7.69-2.93,10.62,0c2.93,2.93,2.93,7.69,0,10.62
					C1477.77,455.9,1473.01,455.9,1470.08,452.97z"/>
				<path class="st4" d="M1498.9,418.63c-3.59-2.07-4.82-6.67-2.75-10.26c2.07-3.59,6.67-4.82,10.26-2.75s4.82,6.67,2.75,10.26
					C1507.09,419.47,1502.49,420.7,1498.9,418.63z"/>
				<path class="st4" d="M1517.85,378c-4.01-1.07-6.38-5.19-5.31-9.2c1.07-4.01,5.19-6.38,9.2-5.31c4.01,1.07,6.38,5.19,5.31,9.2
					C1525.98,376.69,1521.86,379.07,1517.85,378z"/>
				<circle class="st4" cx="1525.64" cy="326.34" r="7.51"/>
				<path class="st4" d="M1521.74,289.19c-4.01,1.07-8.13-1.3-9.2-5.31c-1.07-4.01,1.3-8.13,5.31-9.2c4.01-1.07,8.13,1.3,9.2,5.31
					C1528.13,284,1525.75,288.11,1521.74,289.19z"/>
				<path class="st4" d="M1506.41,247.06c-3.59,2.07-8.19,0.84-10.26-2.75c-2.07-3.59-0.84-8.19,2.75-10.26
					c3.59-2.07,8.19-0.84,10.26,2.75C1511.24,240.39,1510.01,244.99,1506.41,247.06z"/>
				<path class="st4" d="M1480.7,210.33c-2.93,2.93-7.69,2.93-10.62,0c-2.93-2.93-2.93-7.69,0-10.62c2.93-2.93,7.69-2.93,10.62,0
					C1483.64,202.64,1483.64,207.4,1480.7,210.33z"/>
				<path class="st4" d="M1446.36,181.51c-2.07,3.59-6.67,4.82-10.26,2.75s-4.82-6.67-2.75-10.26s6.67-4.82,10.26-2.75
					C1447.21,173.33,1448.44,177.92,1446.36,181.51z"/>
				<path class="st4" d="M1405.74,162.56c-1.07,4.01-5.19,6.38-9.2,5.31c-4.01-1.07-6.38-5.19-5.31-9.2
					c1.07-4.01,5.19-6.38,9.2-5.31C1404.43,154.44,1406.81,158.55,1405.74,162.56z"/>
			</g>
			<path class="st4" d="M1360.3,326.34c0,3.44-2.79,6.23-6.23,6.23c-3.44,0-6.23-2.79-6.23-6.23c0-3.44,2.79-6.23,6.23-6.23
				C1357.51,320.11,1360.3,322.9,1360.3,326.34z"/>
		</g>
	</g>
	<g>
		<g>
			<polyline class="st5" points="1601.2,488.23 1601.2,509.56 1450.86,509.56 1450.86,488.23 1429.86,488.23 1429.86,459.9 
				1421.2,459.9 1421.2,441.9 1415.53,441.9 1415.53,424.56 1410.53,424.56 1410.53,408.56 1406.86,408.56 1406.86,392.23 
				1403.86,392.23 1403.86,376.23 1401.86,376.23 1401.86,361.56 1400.2,361.56 1400.2,350.9 1403.2,350.9 1403.2,346.06 
				1400.2,346.06 1400.2,336.73 			"/>
			<path class="st5" d="M1400.2,336.73c105.25-39.37,216.67,69.75,213.08,151.5c-6,0-12.08,0-12.08,0"/>
		</g>
		<g>
			<polyline class="st4" points="1601.2,488.23 1601.2,509.56 1450.86,509.56 1450.86,488.23 1429.86,488.23 1429.86,459.9 
				1421.2,459.9 1421.2,441.9 1415.53,441.9 1415.53,424.56 1410.53,424.56 1410.53,408.56 1406.86,408.56 1406.86,392.23 
				1403.86,392.23 1403.86,376.23 1401.86,376.23 1401.86,361.56 1400.2,361.56 1400.2,350.9 1403.2,350.9 1403.2,346.06 
				1400.2,346.06 1400.2,336.73 			"/>
			<path class="st4" d="M1400.2,336.73c105.25-39.37,216.67,69.75,213.08,151.5c-6,0-12.08,0-12.08,0"/>
		</g>
		<g>
			<line class="st3" x1="1450.73" y1="488.23" x2="1601.2" y2="488.23"/>
			<line class="st3" x1="1429.86" y1="459.9" x2="1610.31" y2="459.9"/>
			<line class="st3" x1="1421.2" y1="441.9" x2="1604.52" y2="441.9"/>
			<line class="st3" x1="1415.53" y1="424.56" x2="1597.4" y2="424.56"/>
			<line class="st3" x1="1410.53" y1="408.56" x2="1586.39" y2="408.56"/>
			<line class="st3" x1="1406.86" y1="392.23" x2="1573.68" y2="392.23"/>
			<line class="st3" x1="1403.86" y1="376.23" x2="1558.18" y2="376.23"/>
			<line class="st3" x1="1401.86" y1="361.56" x2="1540.37" y2="361.56"/>
			<line class="st3" x1="1403.2" y1="350.9" x2="1524.12" y2="350.9"/>
			<line class="st3" x1="1403.2" y1="346.06" x2="1515.31" y2="346.06"/>
			<g>
				<line class="st3" x1="1466.12" y1="488.3" x2="1450.86" y2="506.02"/>
				<line class="st3" x1="1481.49" y1="488.3" x2="1463.18" y2="509.56"/>
				<line class="st3" x1="1496.86" y1="488.3" x2="1478.55" y2="509.56"/>
				<line class="st3" x1="1512.22" y1="488.3" x2="1493.91" y2="509.56"/>
				<line class="st3" x1="1527.59" y1="488.3" x2="1509.28" y2="509.56"/>
				<line class="st3" x1="1542.96" y1="488.3" x2="1524.65" y2="509.56"/>
				<line class="st3" x1="1558.33" y1="488.3" x2="1540.02" y2="509.56"/>
				<line class="st3" x1="1573.7" y1="488.3" x2="1555.39" y2="509.56"/>
				<line class="st3" x1="1589.07" y1="488.3" x2="1570.75" y2="509.56"/>
				<line class="st3" x1="1601.2" y1="492.06" x2="1586.12" y2="509.56"/>
			</g>
			<g>
				<line class="st3" x1="1411.87" y1="346.05" x2="1407.7" y2="350.9"/>
				<line class="st3" x1="1423.3" y1="346.06" x2="1419.13" y2="350.9"/>
				<line class="st3" x1="1434.75" y1="346.04" x2="1430.57" y2="350.9"/>
				<line class="st3" x1="1446.18" y1="346.04" x2="1442" y2="350.9"/>
				<line class="st3" x1="1457.59" y1="346.06" x2="1453.43" y2="350.9"/>
				<line class="st3" x1="1469.04" y1="346.04" x2="1464.86" y2="350.9"/>
				<line class="st3" x1="1480.47" y1="346.04" x2="1476.29" y2="350.9"/>
				<line class="st3" x1="1491.9" y1="346.04" x2="1487.72" y2="350.9"/>
				<line class="st3" x1="1503.33" y1="346.04" x2="1499.15" y2="350.9"/>
				<line class="st3" x1="1514.92" y1="345.86" x2="1510.58" y2="350.9"/>
			</g>
		</g>
	</g>
	<g>
		<g>
			<polygon class="st6" points="1290.89,258.63 1290.89,248.19 1245.57,248.19 1245.57,258.63 1239.47,258.63 1239.47,266.21 
				1239.47,300.71 1242.22,310.05 1242.22,509.56 1286.24,509.56 1293.72,509.56 1293.72,310.05 1296.47,300.71 1296.47,266.21 
				1296.47,258.63 			"/>
			<path class="st6" d="M1280,217.71v-5.47v-3.11v-9.55c-10.38-27-11.77-54.5-11.77-54.5s-1.39,27.5-11.77,54.5v9.55v3.11v5.47
				c0,0-1.97,13.69-10.89,25.19h45.32C1281.97,231.4,1280,217.71,1280,217.71z"/>
			<polygon class="st6" points="1269.67,192.96 1268.23,191.81 1266.8,192.96 			"/>
			<polygon class="st6" points="1268.23,182.21 1266.8,183.37 1269.67,183.37 			"/>
		</g>
		<g>
			<rect x="1242.22" y="310.05" class="st7" width="7.48" height="199.52"/>
			<rect x="1286.24" y="310.05" class="st7" width="7.48" height="199.52"/>
			<line class="st7" x1="1242.22" y1="509.56" x2="1293.72" y2="509.56"/>
			<line class="st7" x1="1296.47" y1="300.71" x2="1293.72" y2="310.05"/>
			<line class="st7" x1="1242.22" y1="310.05" x2="1239.47" y2="300.71"/>
			<line class="st7" x1="1296.47" y1="266.21" x2="1296.47" y2="300.71"/>
			<line class="st7" x1="1239.47" y1="300.71" x2="1239.47" y2="266.21"/>
			<polyline class="st7" points="1296.47,266.21 1296.47,258.63 1286.77,258.63 			"/>
			<polyline class="st7" points="1249.69,258.63 1239.47,258.63 1239.47,266.21 			"/>
			<polyline class="st7" points="1245.57,258.63 1245.57,248.19 1290.89,248.19 1290.89,258.63 			"/>
			<path class="st7" d="M1268.23,217.71h-11.77c0,0-1.97,13.69-10.89,25.19h45.32"/>
			<path class="st7" d="M1268.23,217.71H1280c0,0,1.97,13.69,10.89,25.19"/>
			<line class="st7" x1="1256.47" y1="217.71" x2="1256.47" y2="199.59"/>
			<path class="st7" d="M1268.23,145.09c0,0-1.39,27.5-11.77,54.5"/>
			<line class="st7" x1="1280" y1="217.71" x2="1280" y2="199.59"/>
			<path class="st7" d="M1268.23,145.09c0,0,1.39,27.5,11.77,54.5"/>
			<line class="st7" x1="1268.23" y1="139.71" x2="1268.23" y2="128.84"/>
		</g>
		<g>
			<line class="st8" x1="1242.22" y1="347.21" x2="1293.72" y2="347.21"/>
			<line class="st8" x1="1257.05" y1="310.05" x2="1278.88" y2="310.05"/>
			<line class="st8" x1="1242.22" y1="354.38" x2="1293.72" y2="354.38"/>
			<line class="st8" x1="1257.05" y1="318.05" x2="1257.05" y2="339.21"/>
			<line class="st8" x1="1267.97" y1="318.05" x2="1267.97" y2="339.21"/>
			<line class="st8" x1="1278.88" y1="318.05" x2="1278.88" y2="339.21"/>
			<line class="st8" x1="1242.22" y1="391.55" x2="1293.72" y2="391.55"/>
			<line class="st8" x1="1242.22" y1="354.38" x2="1293.72" y2="354.38"/>
			<line class="st8" x1="1242.22" y1="398.71" x2="1293.72" y2="398.71"/>
			<line class="st8" x1="1257.05" y1="362.38" x2="1257.05" y2="383.55"/>
			<line class="st8" x1="1267.97" y1="362.38" x2="1267.97" y2="383.55"/>
			<line class="st8" x1="1278.88" y1="362.38" x2="1278.88" y2="383.55"/>
			<line class="st8" x1="1242.22" y1="435.88" x2="1293.72" y2="435.88"/>
			<line class="st8" x1="1242.22" y1="398.71" x2="1293.72" y2="398.71"/>
			<line class="st8" x1="1242.22" y1="443.05" x2="1293.72" y2="443.05"/>
			<line class="st8" x1="1257.05" y1="406.71" x2="1257.05" y2="427.88"/>
			<line class="st8" x1="1267.97" y1="406.71" x2="1267.97" y2="427.88"/>
			<line class="st8" x1="1278.88" y1="406.71" x2="1278.88" y2="427.88"/>
			<line class="st8" x1="1242.22" y1="480.21" x2="1293.72" y2="480.21"/>
			<line class="st8" x1="1242.22" y1="443.05" x2="1293.72" y2="443.05"/>
			<line class="st8" x1="1242.22" y1="487.38" x2="1293.72" y2="487.38"/>
			<line class="st8" x1="1257.05" y1="451.05" x2="1257.05" y2="472.21"/>
			<line class="st8" x1="1267.97" y1="451.05" x2="1267.97" y2="472.21"/>
			<line class="st8" x1="1278.88" y1="451.05" x2="1278.88" y2="472.21"/>
			<rect x="1257.05" y="499.21" class="st8" width="5.92" height="10.35"/>
			<rect x="1271.64" y="499.21" class="st8" width="5.92" height="10.35"/>
			<rect x="1250.98" y="266.21" class="st8" width="34.5" height="34.5"/>
			<circle class="st8" cx="1268.23" cy="283.46" r="12.24"/>
			<polyline class="st8" points="1263.8,226.87 1262.37,225.71 1260.94,226.87 			"/>
			<polyline class="st8" points="1274.99,226.87 1273.56,225.71 1272.13,226.87 			"/>
			<polyline class="st8" points="1258.48,236.81 1257.04,235.65 1255.61,236.81 			"/>
			<polyline class="st8" points="1269.67,236.81 1268.23,235.65 1266.8,236.81 			"/>
			<polyline class="st8" points="1269.67,192.96 1268.23,191.81 1266.8,192.96 			"/>
			<polyline class="st8" points="1269.67,183.37 1268.23,182.21 1266.8,183.37 			"/>
			<polyline class="st8" points="1280.86,236.81 1279.42,235.65 1277.99,236.81 			"/>
			<line class="st8" x1="1257.49" y1="258.63" x2="1278.44" y2="258.63"/>
			<path class="st8" d="M1261.17,217.71v-8.58c0-1.3-1.05-2.35-2.35-2.35s-2.35,1.05-2.35,2.35v8.58"/>
			<path class="st8" d="M1265.88,217.71v-8.58c0-1.3-1.05-2.35-2.35-2.35s-2.35,1.05-2.35,2.35v8.58"/>
			<path class="st8" d="M1270.59,217.71v-8.58c0-1.3-1.05-2.35-2.35-2.35c-1.3,0-2.35,1.05-2.35,2.35v8.58"/>
			<path class="st8" d="M1275.29,217.71v-8.58c0-1.3-1.05-2.35-2.35-2.35s-2.35,1.05-2.35,2.35v8.58"/>
			<path class="st8" d="M1280,217.71v-8.58c0-1.3-1.05-2.35-2.35-2.35s-2.35,1.05-2.35,2.35v8.58"/>
			<line class="st8" x1="1256.17" y1="199.59" x2="1280" y2="199.59"/>
			<line class="st8" x1="1239.47" y1="300.71" x2="1296.47" y2="300.71"/>
			<line class="st8" x1="1239.47" y1="266.21" x2="1296.47" y2="266.21"/>
		</g>
	</g>
	<g>
		<g>
			<path class="st6" d="M707.57,363.61c44.44,124.22-0.46,124.36,0,124.22h-0.01C708.02,487.97,663.12,487.83,707.57,363.61"/>
		</g>
		<line class="st8" x1="707.56" y1="509.56" x2="707.56" y2="430.36"/>
		<path class="st7" d="M707.56,487.83c0.46,0.14-44.44,0,0-124.22"/>
		<path class="st7" d="M707.57,487.83c-0.46,0.14,44.44,0,0-124.22"/>
	</g>
	<g>
		<g>
			<path class="st9" d="M220.24,509.56h-35.67c0,0-26.33-187,35.67-255"/>
			<path class="st9" d="M220.24,509.56h35.67c0,0,26.33-187-35.67-255"/>
		</g>
		<g>
			<path class="st7" d="M220.24,509.56h-35.67c0,0-26.33-187,35.67-255"/>
			<path class="st7" d="M220.24,509.56h35.67c0,0,26.33-187-35.67-255"/>
		</g>
		<g>
			<polygon class="st3" points="226.32,499.48 231.74,509.56 233.07,509.56 238.49,499.48 232.4,488.15 			"/>
			<polygon class="st3" points="208.07,442.87 201.99,454.19 208.07,465.51 214.15,454.19 			"/>
			<polygon class="st3" points="226.32,476.83 220.24,465.51 214.15,476.83 220.24,488.15 			"/>
			<polygon class="st3" points="244.57,397.58 250.65,386.26 244.57,374.93 238.49,386.26 			"/>
			<polygon class="st3" points="238.49,431.54 244.57,442.87 250.65,431.54 244.57,420.22 			"/>
			<polygon class="st3" points="226.32,363.61 232.4,374.93 238.49,363.61 232.4,352.29 			"/>
			<polygon class="st3" points="232.4,329.65 238.49,318.32 232.4,307 226.32,318.32 			"/>
			<polyline class="st3" points="217.29,289.84 214.15,295.68 220.24,307 226.32,295.68 223.18,289.84 			"/>
			<polygon class="st3" points="226.32,386.26 220.24,374.93 214.15,386.26 220.24,397.58 			"/>
			<polygon class="st3" points="226.32,431.54 220.24,420.22 214.15,431.54 220.24,442.87 			"/>
			<polygon class="st3" points="226.32,340.97 220.24,329.65 214.15,340.97 220.24,352.29 			"/>
			<polygon class="st3" points="214.15,408.9 208.07,397.58 201.99,408.9 208.07,420.22 			"/>
			<polygon class="st3" points="226.32,454.19 232.4,465.51 238.49,454.19 232.4,442.87 			"/>
			<polygon class="st3" points="226.32,408.9 232.4,420.22 238.49,408.9 232.4,397.58 			"/>
			<path class="st3" d="M189.82,408.9l-6.08-11.32l-4.55,8.46c-0.04,1.85-0.08,3.69-0.11,5.52l4.65,8.66L189.82,408.9z"/>
			<path class="st3" d="M183.74,442.87l-4.08,7.6c0.12,2.79,0.25,5.52,0.39,8.17l3.69,6.87l6.08-11.32L183.74,442.87z"/>
			<polygon class="st3" points="208.07,307 201.99,318.32 208.07,329.65 214.15,318.32 			"/>
			<polyline class="st3" points="198.85,289.84 201.99,295.68 205.12,289.84 			"/>
			<polygon class="st3" points="201.99,340.97 195.9,329.65 189.82,340.97 195.9,352.29 			"/>
			<path class="st3" d="M183.34,351.56c-0.09,0.65-0.18,1.3-0.26,1.95l0.66-1.22L183.34,351.56z"/>
			<path class="st3" d="M189.71,318.11c-0.06,0.26-0.13,0.52-0.19,0.77l0.3-0.56L189.71,318.11z"/>
			<path class="st3" d="M189.82,499.48l-6.08-11.32l-1.31,2.44c1.02,10.61,1.93,17.38,2.11,18.72L189.82,499.48z"/>
			<path class="st3" d="M195.9,307l-1.97-3.67c-1.55,4.8-2.96,9.74-4.22,14.79l0.11,0.21L195.9,307z"/>
			<path class="st3" d="M183.74,374.93l6.08-11.32l-6.08-11.32l-0.66,1.22c-0.74,5.55-1.36,11.13-1.87,16.71L183.74,374.93z"/>
			<path class="st3" d="M257.39,353.51c-0.09-0.65-0.17-1.3-0.26-1.95l-0.39,0.73L257.39,353.51z"/>
			<path class="st3" d="M250.65,499.48l5.28,9.84c0.18-1.34,1.09-8.11,2.11-18.72l-1.31-2.44L250.65,499.48z"/>
			<path class="st3" d="M250.65,363.61l6.08,11.32l2.53-4.71c-0.52-5.58-1.14-11.16-1.87-16.71l-0.66-1.22L250.65,363.61z"/>
			<path class="st3" d="M250.96,318.89c-0.06-0.26-0.13-0.52-0.19-0.77l-0.11,0.21L250.96,318.89z"/>
			<path class="st3" d="M244.57,307l6.08,11.32l0.11-0.21c-1.27-5.04-2.67-9.98-4.22-14.79L244.57,307z"/>
			<polygon class="st3" points="201.99,476.83 195.9,465.51 189.82,476.83 195.9,488.15 			"/>
			<polygon class="st3" points="201.99,431.54 195.9,420.22 189.82,431.54 195.9,442.87 			"/>
			<polygon class="st3" points="214.15,499.48 208.07,488.15 201.99,499.48 207.41,509.56 208.73,509.56 			"/>
			<polygon class="st3" points="238.49,476.83 244.57,488.15 250.65,476.83 244.57,465.51 			"/>
			<polygon class="st3" points="214.15,363.61 208.07,352.29 201.99,363.61 208.07,374.93 			"/>
			<polygon class="st3" points="201.99,386.26 195.9,374.93 189.82,386.26 195.9,397.58 			"/>
			<polygon class="st3" points="244.57,352.29 250.65,340.97 244.57,329.65 238.49,340.97 			"/>
			<polyline class="st3" points="235.35,289.84 238.49,295.68 241.62,289.84 			"/>
			<path class="st3" d="M250.65,454.19l6.08,11.32l3.69-6.87c0.14-2.65,0.27-5.38,0.39-8.17l-4.08-7.6L250.65,454.19z"/>
			<path class="st3" d="M250.65,408.9l6.08,11.32l4.65-8.66c-0.03-1.83-0.06-3.67-0.11-5.52l-4.55-8.46L250.65,408.9z"/>
			<line class="st3" x1="201.27" y1="284.23" x2="239.2" y2="284.23"/>
			<line class="st3" x1="198.89" y1="289.73" x2="241.58" y2="289.73"/>
		</g>
	</g>
	<g>
		<polygon class="st6" points="873.15,491.06 831.15,67.06 826.65,64.06 826.65,97.06 821.9,97.06 821.9,92.81 809.15,68.56 
			761.65,486.81 769.65,486.81 767.65,509.56 868.15,509.56 865.15,491.06 		"/>
		<g>
			<polyline class="st7" points="767.65,509.56 868.15,509.56 865.15,491.06 873.15,491.06 831.15,67.06 826.65,64.06 826.65,97.06 
							"/>
			<polyline class="st7" points="767.65,509.56 769.65,486.81 761.65,486.81 809.15,68.56 821.9,92.81 821.9,97.06 826.65,97.06 			
				"/>
		</g>
		<polyline class="st8" points="826.65,97.06 826.65,353.73 848.15,491.06 859.32,491.06 		"/>
		<polyline class="st8" points="816.49,166.91 821.15,181.06 821.15,432.23 		"/>
		<polyline class="st8" points="821.9,97.06 791.48,489.23 824.05,489.23 		"/>
		<line class="st8" x1="769.65" y1="486.81" x2="787.48" y2="486.81"/>
		<g>
			<polygon class="st8" points="821.15,370.4 829.26,370.4 828.45,365.23 821.15,365.23 			"/>
			<polygon class="st8" points="821.15,365.23 828.45,365.23 827.64,360.06 821.15,360.06 			"/>
			<polygon class="st8" points="821.15,360.06 827.64,360.06 826.83,354.9 821.15,354.9 			"/>
			<polygon class="st8" points="821.15,354.9 826.83,354.9 826.65,353.73 826.65,349.73 821.15,349.73 			"/>
			<polygon class="st8" points="821.15,396.23 833.3,396.23 832.49,391.06 821.15,391.06 			"/>
			<polygon class="st8" points="821.15,375.56 830.07,375.56 829.26,370.4 821.15,370.4 			"/>
			<polygon class="st8" points="821.15,385.9 831.68,385.9 830.88,380.73 821.15,380.73 			"/>
			<polygon class="st8" points="821.15,391.06 832.49,391.06 831.68,385.9 821.15,385.9 			"/>
			<polygon class="st8" points="821.15,380.73 830.88,380.73 830.07,375.56 821.15,375.56 			"/>
			<rect x="821.15" y="318.73" class="st8" width="5.5" height="5.17"/>
			<rect x="821.15" y="313.56" class="st8" width="5.5" height="5.17"/>
			<rect x="821.15" y="344.56" class="st8" width="5.5" height="5.17"/>
			<rect x="821.15" y="303.23" class="st8" width="5.5" height="5.17"/>
			<polygon class="st8" points="821.15,401.4 834.11,401.4 833.3,396.23 821.15,396.23 			"/>
			<rect x="821.15" y="308.4" class="st8" width="5.5" height="5.17"/>
			<rect x="821.15" y="334.23" class="st8" width="5.5" height="5.17"/>
			<rect x="821.15" y="339.4" class="st8" width="5.5" height="5.17"/>
			<rect x="821.15" y="329.06" class="st8" width="5.5" height="5.17"/>
			<rect x="821.15" y="323.9" class="st8" width="5.5" height="5.17"/>
			<polygon class="st8" points="823.26,473.73 845.43,473.73 844.63,468.56 823,468.56 			"/>
			<polygon class="st8" points="822.74,463.4 843.82,463.4 843.01,458.23 822.47,458.23 			"/>
			<polygon class="st8" points="823,468.56 844.63,468.56 843.82,463.4 822.74,463.4 			"/>
			<polygon class="st8" points="822.47,458.23 843.01,458.23 842.2,453.06 822.21,453.06 			"/>
			<polygon class="st8" points="822.21,453.06 842.2,453.06 841.39,447.9 821.95,447.9 			"/>
			<rect x="821.15" y="298.06" class="st8" width="5.5" height="5.17"/>
			<polygon class="st8" points="824.05,489.23 847.86,489.23 847.05,484.06 823.79,484.06 			"/>
			<polygon class="st8" points="821.15,406.56 834.92,406.56 834.11,401.4 821.15,401.4 			"/>
			<polyline class="st8" points="848.15,491.06 847.86,489.23 824.05,489.23 			"/>
			<polygon class="st8" points="823.79,484.06 847.05,484.06 846.24,478.9 823.53,478.9 			"/>
			<polygon class="st8" points="823.53,478.9 846.24,478.9 845.43,473.73 823.26,473.73 			"/>
			<polygon class="st8" points="821.15,427.23 838.16,427.23 837.35,422.06 821.15,422.06 			"/>
			<polygon class="st8" points="821.15,422.06 837.35,422.06 836.54,416.9 821.15,416.9 			"/>
			<polygon class="st8" points="821.95,447.9 841.39,447.9 840.58,442.73 821.68,442.73 			"/>
			<polygon class="st8" points="821.15,411.73 835.73,411.73 834.92,406.56 821.15,406.56 			"/>
			<polygon class="st8" points="821.15,416.9 836.54,416.9 835.73,411.73 821.15,411.73 			"/>
			<polygon class="st8" points="821.68,442.73 840.58,442.73 839.77,437.56 821.42,437.56 			"/>
			<polygon class="st8" points="821.15,432.23 821.16,432.4 838.96,432.4 838.16,427.23 821.15,427.23 			"/>
			<polygon class="st8" points="821.42,437.56 839.77,437.56 838.96,432.4 821.16,432.4 			"/>
			<polygon class="st8" points="817.94,148.23 826.65,148.23 826.65,143.06 818.34,143.06 			"/>
			<path class="st8" d="M816.49,166.91c0,0,0.26,0.79,0.65,1.99h9.5v-5.17h-9.91L816.49,166.91z"/>
			<path class="st8" d="M818.84,174.06h7.8v-5.17h-9.5C817.59,170.26,818.22,172.16,818.84,174.06z"/>
			<polygon class="st8" points="816.74,163.73 826.65,163.73 826.65,158.56 817.14,158.56 			"/>
			<polygon class="st8" points="817.14,158.56 826.65,158.56 826.65,153.4 817.54,153.4 			"/>
			<rect x="821.15" y="184.4" class="st8" width="5.5" height="5.17"/>
			<rect x="821.15" y="189.56" class="st8" width="5.5" height="5.17"/>
			<polygon class="st8" points="817.54,153.4 826.65,153.4 826.65,148.23 817.94,148.23 			"/>
			<path class="st8" d="M821.15,181.06v3.33h5.5v-5.17h-6.1C820.91,180.34,821.15,181.06,821.15,181.06z"/>
			<path class="st8" d="M820.54,179.23h6.1v-5.17h-7.8C819.48,175.98,820.1,177.89,820.54,179.23z"/>
			<rect x="821.15" y="194.73" class="st8" width="5.5" height="5.17"/>
			<polygon class="st8" points="826.65,97.06 821.9,97.06 821.54,101.73 826.65,101.73 			"/>
			<polygon class="st8" points="820.34,117.23 826.65,117.23 826.65,112.06 820.74,112.06 			"/>
			<polygon class="st8" points="818.34,143.06 826.65,143.06 826.65,137.9 818.74,137.9 			"/>
			<polygon class="st8" points="821.14,106.9 820.74,112.06 826.65,112.06 826.65,106.9 			"/>
			<polygon class="st8" points="826.65,101.73 821.54,101.73 821.14,106.9 826.65,106.9 			"/>
			<polygon class="st8" points="819.14,132.73 826.65,132.73 826.65,127.56 819.54,127.56 			"/>
			<polygon class="st8" points="818.74,137.9 826.65,137.9 826.65,132.73 819.14,132.73 			"/>
			<polygon class="st8" points="819.94,122.4 826.65,122.4 826.65,117.23 820.34,117.23 			"/>
			<polygon class="st8" points="819.54,127.56 826.65,127.56 826.65,122.4 819.94,122.4 			"/>
			<rect x="821.15" y="236.06" class="st8" width="5.5" height="5.17"/>
			<rect x="821.15" y="256.73" class="st8" width="5.5" height="5.17"/>
			<rect x="821.15" y="261.9" class="st8" width="5.5" height="5.17"/>
			<rect x="821.15" y="267.06" class="st8" width="5.5" height="5.17"/>
			<rect x="821.15" y="251.56" class="st8" width="5.5" height="5.17"/>
			<rect x="821.15" y="277.4" class="st8" width="5.5" height="5.17"/>
			<rect x="821.15" y="287.73" class="st8" width="5.5" height="5.17"/>
			<rect x="821.15" y="282.56" class="st8" width="5.5" height="5.17"/>
			<rect x="821.15" y="246.4" class="st8" width="5.5" height="5.17"/>
			<rect x="821.15" y="272.23" class="st8" width="5.5" height="5.17"/>
			<rect x="821.15" y="292.9" class="st8" width="5.5" height="5.17"/>
			<rect x="821.15" y="241.23" class="st8" width="5.5" height="5.17"/>
			<rect x="821.15" y="215.4" class="st8" width="5.5" height="5.17"/>
			<rect x="821.15" y="220.56" class="st8" width="5.5" height="5.17"/>
			<rect x="821.15" y="205.06" class="st8" width="5.5" height="5.17"/>
			<rect x="821.15" y="210.23" class="st8" width="5.5" height="5.17"/>
			<rect x="821.15" y="225.73" class="st8" width="5.5" height="5.17"/>
			<rect x="821.15" y="199.9" class="st8" width="5.5" height="5.17"/>
			<rect x="821.15" y="230.9" class="st8" width="5.5" height="5.17"/>
		</g>
		<g>
			<polyline class="st8" points="847.86,489.23 848.15,491.06 873.15,491.06 872.97,489.23 			"/>
			<polyline class="st8" points="831.3,68.56 831.15,67.06 826.65,64.06 826.65,68.56 			"/>
			<polyline class="st8" points="826.65,68.56 826.65,78.82 832.31,78.82 831.3,68.56 			"/>
			<polyline class="st8" points="826.65,273.77 826.65,284.03 852.64,284.03 851.62,273.77 			"/>
			<polyline class="st8" points="826.65,335.33 826.65,345.59 858.74,345.59 857.72,335.33 			"/>
			<polyline class="st8" points="859.75,355.85 858.74,345.59 826.65,345.59 826.65,353.73 826.98,355.85 			"/>
			<polyline class="st8" points="826.98,355.85 828.59,366.11 860.77,366.11 859.75,355.85 			"/>
			<polyline class="st8" points="853.66,294.29 852.64,284.03 826.65,284.03 826.65,294.29 			"/>
			<polyline class="st8" points="826.65,314.81 826.65,325.07 856.71,325.07 855.69,314.81 			"/>
			<polyline class="st8" points="861.79,376.37 860.77,366.11 828.59,366.11 830.19,376.37 			"/>
			<polyline class="st8" points="855.69,314.81 854.67,304.55 826.65,304.55 826.65,314.81 			"/>
			<polyline class="st8" points="857.72,335.33 856.71,325.07 826.65,325.07 826.65,335.33 			"/>
			<polyline class="st8" points="869.92,458.45 868.9,448.19 841.44,448.19 843.04,458.45 			"/>
			<polyline class="st8" points="867.89,437.93 866.87,427.67 838.22,427.67 839.83,437.93 			"/>
			<polyline class="st8" points="830.19,376.37 831.8,386.63 862.8,386.63 861.79,376.37 			"/>
			<polyline class="st8" points="843.04,458.45 844.65,468.71 870.93,468.71 869.92,458.45 			"/>
			<polyline class="st8" points="839.83,437.93 841.44,448.19 868.9,448.19 867.89,437.93 			"/>
			<polyline class="st8" points="836.62,417.41 838.22,427.67 866.87,427.67 865.85,417.41 			"/>
			<polyline class="st8" points="863.82,396.89 862.8,386.63 831.8,386.63 833.4,396.89 			"/>
			<polyline class="st8" points="833.4,396.89 835.01,407.15 864.84,407.15 863.82,396.89 			"/>
			<polyline class="st8" points="865.85,417.41 864.84,407.15 835.01,407.15 836.62,417.41 			"/>
			<polyline class="st8" points="826.65,294.29 826.65,304.55 854.67,304.55 853.66,294.29 			"/>
			<polyline class="st8" points="826.65,130.12 826.65,140.38 838.41,140.38 837.39,130.12 			"/>
			<polyline class="st8" points="826.65,150.65 826.65,160.91 840.44,160.91 839.43,150.65 			"/>
			<polyline class="st8" points="839.43,150.65 838.41,140.38 826.65,140.38 826.65,150.65 			"/>
			<polyline class="st8" points="841.46,171.17 840.44,160.91 826.65,160.91 826.65,171.17 			"/>
			<polyline class="st8" points="826.65,171.17 826.65,181.43 842.48,181.43 841.46,171.17 			"/>
			<polyline class="st8" points="833.33,89.08 832.31,78.82 826.65,78.82 826.65,89.08 			"/>
			<polyline class="st8" points="837.39,130.12 836.38,119.86 826.65,119.86 826.65,130.12 			"/>
			<polyline class="st8" points="835.36,109.6 834.35,99.34 826.65,99.34 826.65,109.6 			"/>
			<polyline class="st8" points="851.62,273.77 850.61,263.51 826.65,263.51 826.65,273.77 			"/>
			<polyline class="st8" points="826.65,109.6 826.65,119.86 836.38,119.86 835.36,109.6 			"/>
			<polyline class="st8" points="849.59,253.25 848.57,242.99 826.65,242.99 826.65,253.25 			"/>
			<polyline class="st8" points="847.56,232.73 846.54,222.47 826.65,222.47 826.65,232.73 			"/>
			<polyline class="st8" points="826.65,232.73 826.65,242.99 848.57,242.99 847.56,232.73 			"/>
			<polyline class="st8" points="826.65,253.25 826.65,263.51 850.61,263.51 849.59,253.25 			"/>
			<polyline class="st8" points="843.49,191.69 842.48,181.43 826.65,181.43 826.65,191.69 			"/>
			<polyline class="st8" points="826.65,212.21 826.65,222.47 846.54,222.47 845.53,212.21 			"/>
			<polyline class="st8" points="826.65,191.69 826.65,201.95 844.51,201.95 843.49,191.69 			"/>
			<polyline class="st8" points="845.53,212.21 844.51,201.95 826.65,201.95 826.65,212.21 			"/>
			<polyline class="st8" points="826.65,89.08 826.65,97.06 826.65,99.34 834.35,99.34 833.33,89.08 			"/>
			<polygon class="st8" points="805.04,314.81 781.18,314.81 780.02,325.07 804.24,325.07 			"/>
			<polygon class="st8" points="805.83,304.55 782.35,304.55 781.18,314.81 805.04,314.81 			"/>
			<polygon class="st8" points="803.45,335.33 778.85,335.33 777.69,345.59 802.66,345.59 			"/>
			<polygon class="st8" points="804.24,325.07 780.02,325.07 778.85,335.33 803.45,335.33 			"/>
			<polygon class="st8" points="810.6,242.99 789.34,242.99 788.17,253.25 809.81,253.25 			"/>
			<polygon class="st8" points="806.63,294.29 783.51,294.29 782.35,304.55 805.83,304.55 			"/>
			<polygon class="st8" points="807.42,284.03 784.68,284.03 783.51,294.29 806.63,294.29 			"/>
			<polygon class="st8" points="809.01,263.51 787.01,263.51 785.84,273.77 808.22,273.77 			"/>
			<polygon class="st8" points="809.81,253.25 788.17,253.25 787.01,263.51 809.01,263.51 			"/>
			<polygon class="st8" points="808.22,273.77 785.84,273.77 784.68,284.03 807.42,284.03 			"/>
			<polygon class="st8" points="802.66,345.59 777.69,345.59 776.52,355.85 801.86,355.85 			"/>
			<polygon class="st8" points="796.3,427.67 768.37,427.67 767.2,437.93 795.51,437.93 			"/>
			<polygon class="st8" points="761.65,486.81 791.72,486.81 792.33,478.97 762.54,478.97 			"/>
			<polygon class="st8" points="797.89,407.15 770.7,407.15 769.53,417.41 797.09,417.41 			"/>
			<polygon class="st8" points="797.09,417.41 769.53,417.41 768.37,427.67 796.3,427.67 			"/>
			<polygon class="st8" points="763.7,468.71 762.54,478.97 792.33,478.97 793.12,468.71 			"/>
			<polygon class="st8" points="798.68,396.89 771.86,396.89 770.7,407.15 797.89,407.15 			"/>
			<polygon class="st8" points="800.27,376.37 774.19,376.37 773.03,386.63 799.48,386.63 			"/>
			<polygon class="st8" points="801.86,355.85 776.52,355.85 775.36,366.11 801.07,366.11 			"/>
			<polygon class="st8" points="799.48,386.63 773.03,386.63 771.86,396.89 798.68,396.89 			"/>
			<polygon class="st8" points="801.07,366.11 775.36,366.11 774.19,376.37 800.27,376.37 			"/>
			<polygon class="st8" points="821.9,97.06 821.9,92.81 819.94,89.08 806.82,89.08 805.65,99.34 821.72,99.34 			"/>
			<polygon class="st8" points="821.72,99.34 805.65,99.34 804.49,109.6 820.93,109.6 			"/>
			<polygon class="st8" points="820.13,119.86 803.32,119.86 802.16,130.12 819.34,130.12 			"/>
			<polygon class="st8" points="814.54,78.82 807.98,78.82 806.82,89.08 819.94,89.08 			"/>
			<polygon class="st8" points="820.93,109.6 804.49,109.6 803.32,119.86 820.13,119.86 			"/>
			<polygon class="st8" points="795.51,437.93 767.2,437.93 766.03,448.19 794.71,448.19 			"/>
			<polygon class="st8" points="793.92,458.45 764.87,458.45 763.7,468.71 793.12,468.71 			"/>
			<polygon class="st8" points="794.71,448.19 766.03,448.19 764.87,458.45 793.92,458.45 			"/>
			<polygon class="st8" points="819.34,130.12 802.16,130.12 800.99,140.38 818.54,140.38 			"/>
			<polygon class="st8" points="809.15,68.56 807.98,78.82 814.54,78.82 			"/>
			<polygon class="st8" points="812.98,212.21 792.84,212.21 791.67,222.47 812.19,222.47 			"/>
			<polygon class="st8" points="813.78,201.95 794,201.95 792.84,212.21 812.98,212.21 			"/>
			<polygon class="st8" points="811.39,232.73 790.5,232.73 789.34,242.99 810.6,242.99 			"/>
			<polygon class="st8" points="814.57,191.69 795.17,191.69 794,201.95 813.78,201.95 			"/>
			<polygon class="st8" points="812.19,222.47 791.67,222.47 790.5,232.73 811.39,232.73 			"/>
			<polygon class="st8" points="816.16,171.17 797.5,171.17 796.33,181.43 815.37,181.43 			"/>
			<polygon class="st8" points="816.96,160.91 798.66,160.91 797.5,171.17 816.16,171.17 			"/>
			<polygon class="st8" points="817.75,150.65 799.83,150.65 798.66,160.91 816.96,160.91 			"/>
			<polygon class="st8" points="818.54,140.38 800.99,140.38 799.83,150.65 817.75,150.65 			"/>
			<polygon class="st8" points="815.37,181.43 796.33,181.43 795.17,191.69 814.57,191.69 			"/>
		</g>
	</g>
	<g>
		<path class="st10" d="M695.98,463.15v-101.5l1.75-11.25v-68l-8.75-31.75l-6.22,22.57l-13.78-37.49h-2h-2l-13.78,37.49l-6.22-22.57
			l-8.75,31.75v33.17H507.88h-0.07c-0.35-2.28-2.05-3.24-4.36-3.54c-4.88-0.62-6.12-4.38-6.12-4.38s-1.25,3.75-6.12,4.38
			c-2.32,0.3-4.02,1.26-4.36,3.54h-0.07H358.4V282.4l-8.75-31.75l-6.22,22.57l-13.78-37.49h-2h-2l-13.78,37.49l-6.22-22.57
			l-8.75,31.75v68l1.75,11.25v101.5h-15.58v46.42h89.17H622.4h89.17v-46.42H695.98z M637.98,452.99L545.8,360.8l-3.54,3.54
			l-4.36,4.36c0,0,57.77,68.59,84.5,116.95l-17.87,14l-17.87-14l-17.87,14l-17.87-14l-17.86,14l-17.87-14l-17.87,14l-17.87-14
			l-17.86,14l-17.87-14l-17.86,14l-17.86-14l-17.86,14l-17.87-14l-0.02,0c26.73-48.36,84.5-116.95,84.5-116.95l-4.36-4.36
			l-3.54-3.54l-92.18,92.18l0-91.34l1.75-11.25v-5.17h277.83v5.17l1.75,11.25L637.98,452.99z"/>
		<g>
			<g>
				<polyline class="st4" points="343.43,273.22 329.65,235.73 327.65,235.73 325.65,235.73 311.87,273.22 				"/>
			</g>
			<path class="st4" d="M497.32,329.65h-10.56c0,0,0-10.25,0-13.19s1.83-4.1,4.44-4.44c4.88-0.62,6.12-4.38,6.12-4.38
				s1.25,3.75,6.12,4.38c2.6,0.33,4.44,1.5,4.44,4.44s0,13.19,0,13.19H497.32z"/>
			<g>
				<polyline class="st4" points="651.2,273.22 664.98,235.73 666.98,235.73 668.98,235.73 682.76,273.22 				"/>
			</g>
			<path class="st4" d="M372.26,485.65l17.87,14l17.86-14l17.86,14l17.86-14l17.87,14l17.86-14l17.87,14l17.87-14l17.87,14l17.86-14
				l17.87,14l17.87-14l17.87,14l17.87-14c-26.72-48.36-84.5-116.95-84.5-116.95l4.36-4.36l3.54-3.54l92.18,92.18l0-91.34
				l-1.75-11.25v-5.17H358.4v5.17l-1.75,11.25l0,91.34l92.18-92.18l3.54,3.54l4.36,4.36c0,0-57.77,68.59-84.5,116.95L372.26,485.65z
				"/>
			<polyline class="st4" points="507.88,315.56 636.23,315.56 636.23,282.4 644.98,250.65 653.73,282.4 658.32,282.4 658.32,273.56 
				661.32,273.56 666.98,262.73 672.65,273.56 675.65,273.56 675.65,282.4 680.23,282.4 688.98,250.65 697.73,282.4 697.73,350.4 
				695.98,361.65 695.98,463.15 711.57,463.15 711.57,509.56 622.4,509.56 372.24,509.56 283.07,509.56 283.07,463.15 
				298.65,463.15 298.65,361.65 296.9,350.4 296.9,282.4 305.65,250.65 314.4,282.4 318.99,282.4 318.99,273.56 321.99,273.56 
				327.65,262.73 333.32,273.56 336.32,273.56 336.32,282.4 340.9,282.4 349.65,250.65 358.4,282.4 358.4,315.56 486.76,315.56 			
				"/>
		</g>
		<g>
			<line class="st3" x1="314.4" y1="303.73" x2="340.9" y2="303.73"/>
			<line class="st3" x1="314.4" y1="307.73" x2="340.9" y2="307.73"/>
			<line class="st3" x1="302.78" y1="303.73" x2="308.53" y2="303.73"/>
			<line class="st3" x1="296.9" y1="282.4" x2="314.4" y2="282.4"/>
			<line class="st3" x1="302.78" y1="307.73" x2="308.53" y2="307.73"/>
			<line class="st3" x1="346.78" y1="303.73" x2="352.53" y2="303.73"/>
			<line class="st3" x1="340.9" y1="282.4" x2="358.4" y2="282.4"/>
			<line class="st3" x1="346.78" y1="307.73" x2="352.53" y2="307.73"/>
			<line class="st3" x1="312.65" y1="371.58" x2="342.65" y2="371.58"/>
			<line class="st3" x1="312.65" y1="378.58" x2="342.65" y2="378.58"/>
			<line class="st3" x1="302.78" y1="371.58" x2="308.53" y2="371.58"/>
			<line class="st3" x1="302.78" y1="378.58" x2="308.53" y2="378.58"/>
			<line class="st3" x1="346.78" y1="371.58" x2="352.53" y2="371.58"/>
			<line class="st3" x1="346.78" y1="378.58" x2="352.53" y2="378.58"/>
			<line class="st3" x1="314.4" y1="337.9" x2="340.9" y2="337.9"/>
			<line class="st3" x1="314.4" y1="344.9" x2="340.9" y2="344.9"/>
			<line class="st3" x1="302.78" y1="337.9" x2="308.53" y2="337.9"/>
			<line class="st3" x1="302.78" y1="344.9" x2="308.53" y2="344.9"/>
			<line class="st3" x1="346.78" y1="337.9" x2="352.53" y2="337.9"/>
			<line class="st3" x1="346.78" y1="344.9" x2="352.53" y2="344.9"/>
			<line class="st3" x1="312.65" y1="408.15" x2="342.65" y2="408.15"/>
			<line class="st3" x1="312.65" y1="415.15" x2="342.65" y2="415.15"/>
			<line class="st3" x1="302.78" y1="408.15" x2="308.53" y2="408.15"/>
			<line class="st3" x1="302.78" y1="415.15" x2="308.53" y2="415.15"/>
			<line class="st3" x1="346.78" y1="408.15" x2="352.53" y2="408.15"/>
			<line class="st3" x1="346.78" y1="415.15" x2="352.53" y2="415.15"/>
			<path class="st3" d="M324.47,287.21c-0.88,0-1.59,0.71-1.59,1.59v9.19h3.19v-9.19C326.06,287.92,325.35,287.21,324.47,287.21z"/>
			<path class="st3" d="M327.65,287.21c-0.88,0-1.59,0.71-1.59,1.59v9.19h3.19v-9.19C329.25,287.92,328.53,287.21,327.65,287.21z"/>
			<path class="st3" d="M330.84,287.21c-0.88,0-1.59,0.71-1.59,1.59v9.19h3.19v-9.19C332.43,287.92,331.72,287.21,330.84,287.21z"/>
			<path class="st3" d="M324.47,314.63c-0.88,0-1.59,0.71-1.59,1.59v9.19h3.19v-9.19C326.06,315.35,325.35,314.63,324.47,314.63z"/>
			<path class="st3" d="M319.84,360.8c-0.88,0-1.59,0.71-1.59,1.59v9.19h3.19v-9.19C321.43,361.52,320.72,360.8,319.84,360.8z"/>
			<path class="st3" d="M318.56,397.37c-0.88,0-1.59,0.71-1.59,1.59v9.19h3.19v-9.19C320.15,398.08,319.44,397.37,318.56,397.37z"/>
			<path class="st3" d="M337.06,397.37c-0.88,0-1.59,0.71-1.59,1.59v9.19h3.19v-9.19C338.65,398.08,337.94,397.37,337.06,397.37z"/>
			<path class="st3" d="M327.65,360.8c-0.88,0-1.59,0.71-1.59,1.59v9.19h3.19v-9.19C329.25,361.52,328.53,360.8,327.65,360.8z"/>
			<path class="st3" d="M326.06,397.37c-0.88,0-1.59,0.71-1.59,1.59v9.19h3.19v-9.19C327.65,398.08,326.94,397.37,326.06,397.37z"/>
			<path class="st3" d="M329.25,397.37c-0.88,0-1.59,0.71-1.59,1.59v9.19h3.19v-9.19C330.84,398.08,330.13,397.37,329.25,397.37z"/>
			<path class="st3" d="M318.56,441.24c-0.88,0-1.59,0.71-1.59,1.59v6.19h3.19v-6.19C320.15,441.95,319.44,441.24,318.56,441.24z"/>
			<path class="st3" d="M337.06,441.24c-0.88,0-1.59,0.71-1.59,1.59v6.19h3.19v-6.19C338.65,441.95,337.94,441.24,337.06,441.24z"/>
			<path class="st3" d="M318.56,428.24c-0.88,0-1.59,0.71-1.59,1.59v6.19h3.19v-6.19C320.15,428.95,319.44,428.24,318.56,428.24z"/>
			<path class="st3" d="M337.06,428.24c-0.88,0-1.59,0.71-1.59,1.59v6.19h3.19v-6.19C338.65,428.95,337.94,428.24,337.06,428.24z"/>
			<path class="st3" d="M326.06,428.24c-0.88,0-1.59,0.71-1.59,1.59v19.19h3.19v-19.19C327.65,428.95,326.94,428.24,326.06,428.24z"
				/>
			<path class="st3" d="M329.25,428.24c-0.88,0-1.59,0.71-1.59,1.59v19.19h3.19v-19.19C330.84,428.95,330.13,428.24,329.25,428.24z"
				/>
			<path class="st3" d="M335.47,360.8c-0.88,0-1.59,0.71-1.59,1.59v9.19h3.19v-9.19C337.06,361.52,336.35,360.8,335.47,360.8z"/>
			<path class="st3" d="M327.65,314.63c-0.88,0-1.59,0.71-1.59,1.59v9.19h3.19v-9.19C329.25,315.35,328.53,314.63,327.65,314.63z"/>
			<path class="st3" d="M330.84,314.63c-0.88,0-1.59,0.71-1.59,1.59v9.19h3.19v-9.19C332.43,315.35,331.72,314.63,330.84,314.63z"/>
			<path class="st3" d="M322.87,282.4c0-2.64,2.14-4.78,4.78-4.78c2.64,0,4.78,2.14,4.78,4.78"/>
			<polyline class="st3" points="342.65,361.65 340.9,350.4 340.9,282.4 			"/>
			<polyline class="st3" points="314.4,282.4 314.4,350.4 312.65,361.65 			"/>
			<polyline class="st3" points="309.15,350.4 312.65,361.65 312.65,463.15 			"/>
			<line class="st3" x1="309.15" y1="350.4" x2="305.65" y2="361.65"/>
			<line class="st3" x1="305.65" y1="361.65" x2="302.15" y2="350.4"/>
			<line class="st3" x1="302.15" y1="350.4" x2="298.65" y2="361.65"/>
			<line class="st3" x1="356.65" y1="361.65" x2="353.15" y2="350.4"/>
			<line class="st3" x1="353.15" y1="350.4" x2="349.65" y2="361.65"/>
			<line class="st3" x1="349.65" y1="361.65" x2="346.15" y2="350.4"/>
			<polyline class="st3" points="346.15,350.4 342.65,361.65 342.65,463.15 			"/>
			<rect x="322.87" y="325.41" class="st3" width="9.56" height="4.86"/>
			<line class="st3" x1="304.34" y1="463.15" x2="350.97" y2="463.15"/>
			<line class="st3" x1="289.78" y1="468.9" x2="365.53" y2="468.9"/>
			<line class="st3" x1="289.78" y1="472.4" x2="365.53" y2="472.4"/>
			<line class="st3" x1="289.78" y1="475.9" x2="365.53" y2="475.9"/>
			<path class="st3" d="M303.21,509.29c0,0,0-4.3,0-5.58c0-1.28,5.47-7.52,24.44-13.33"/>
			<line class="st3" x1="327.65" y1="494.48" x2="327.65" y2="505.5"/>
			<path class="st3" d="M352.1,509.29c0,0,0-4.3,0-5.58c0-1.28-5.47-7.52-24.44-13.33"/>
			<line class="st3" x1="305.65" y1="250.65" x2="305.65" y2="239.02"/>
			<line class="st3" x1="302.78" y1="242.83" x2="308.53" y2="242.83"/>
			<line class="st3" x1="349.65" y1="250.65" x2="349.65" y2="239.02"/>
			<line class="st3" x1="346.78" y1="242.83" x2="352.53" y2="242.83"/>
			<line class="st3" x1="327.65" y1="235.73" x2="327.65" y2="222.11"/>
			<line class="st3" x1="324.78" y1="225.92" x2="330.53" y2="225.92"/>
			<line class="st3" x1="358.4" y1="315.56" x2="358.4" y2="345.23"/>
			<line class="st3" x1="358.4" y1="325.41" x2="486.76" y2="325.41"/>
			<line class="st3" x1="486.76" y1="329.65" x2="358.4" y2="329.65"/>
			
				<rect x="359.84" y="317.01" transform="matrix(0.7071 0.7071 -0.7071 0.7071 333.0403 -163.0424)" class="st3" width="6.96" height="6.96"/>
			
				<rect x="369.69" y="317.01" transform="matrix(0.7071 0.7071 -0.7071 0.7071 335.9201 -170.0064)" class="st3" width="6.96" height="6.96"/>
			
				<rect x="379.54" y="317.01" transform="matrix(0.7071 0.7071 -0.7071 0.7071 338.8048 -176.9707)" class="st3" width="6.96" height="6.96"/>
			
				<rect x="389.39" y="317.01" transform="matrix(0.7071 0.7071 -0.7071 0.7071 341.6895 -183.9349)" class="st3" width="6.96" height="6.96"/>
			
				<rect x="399.24" y="317.01" transform="matrix(0.7071 0.7071 -0.7071 0.7071 344.5742 -190.8992)" class="st3" width="6.96" height="6.96"/>
			
				<rect x="409.09" y="317.01" transform="matrix(0.7071 0.7071 -0.7071 0.7071 347.4642 -197.8641)" class="st3" width="6.96" height="6.96"/>
			
				<rect x="418.94" y="317.01" transform="matrix(0.7071 0.7071 -0.7071 0.7071 350.3436 -204.8277)" class="st3" width="6.96" height="6.96"/>
			
				<rect x="428.79" y="317.01" transform="matrix(0.7071 0.7071 -0.7071 0.7071 353.2283 -211.792)" class="st3" width="6.96" height="6.96"/>
			
				<rect x="438.64" y="317.01" transform="matrix(0.7071 0.7071 -0.7071 0.7071 356.113 -218.7562)" class="st3" width="6.96" height="6.96"/>
			
				<rect x="448.49" y="317.01" transform="matrix(0.7071 0.7071 -0.7071 0.7071 358.9977 -225.7205)" class="st3" width="6.96" height="6.96"/>
			
				<rect x="458.33" y="317.01" transform="matrix(0.7071 0.7071 -0.7071 0.7071 361.8824 -232.6847)" class="st3" width="6.96" height="6.96"/>
			
				<rect x="468.18" y="317.01" transform="matrix(0.7071 0.7071 -0.7071 0.7071 364.7671 -239.649)" class="st3" width="6.96" height="6.96"/>
			
				<rect x="478.03" y="317.01" transform="matrix(0.7071 0.7071 -0.7071 0.7071 367.6575 -246.6144)" class="st3" width="6.96" height="6.96"/>
			<line class="st3" x1="363.33" y1="340.65" x2="373.18" y2="340.65"/>
			<line class="st3" x1="378.56" y1="340.65" x2="388.41" y2="340.65"/>
			<line class="st3" x1="393.8" y1="340.65" x2="403.64" y2="340.65"/>
			<line class="st3" x1="409.03" y1="340.65" x2="418.88" y2="340.65"/>
			<line class="st3" x1="424.26" y1="340.65" x2="434.11" y2="340.65"/>
			<line class="st3" x1="439.5" y1="340.65" x2="449.35" y2="340.65"/>
			<line class="st3" x1="454.73" y1="340.65" x2="464.58" y2="340.65"/>
			<line class="st3" x1="469.97" y1="340.65" x2="479.82" y2="340.65"/>
			<line class="st3" x1="485.2" y1="340.65" x2="495.05" y2="340.65"/>
			<line class="st3" x1="486.76" y1="316.46" x2="486.76" y2="307.65"/>
			<line class="st3" x1="507.88" y1="316.46" x2="507.88" y2="307.65"/>
			<line class="st3" x1="497.32" y1="307.65" x2="497.32" y2="298.83"/>
			<line class="st3" x1="494.86" y1="301.24" x2="499.78" y2="301.24"/>
			<line class="st3" x1="452.37" y1="364.34" x2="356.65" y2="460.06"/>
			<polyline class="st3" points="456.73,368.7 445.18,371.53 438.13,391.58 418.08,398.63 414.55,422.21 390.97,425.74 
				391.99,453.87 363.87,452.85 366.08,463.15 			"/>
			<polyline class="st3" points="372.24,509.29 372.24,463.15 356.65,463.15 356.65,452.99 			"/>
			<line class="st3" x1="680.23" y1="303.73" x2="653.73" y2="303.73"/>
			<line class="st3" x1="680.23" y1="307.73" x2="653.73" y2="307.73"/>
			<line class="st3" x1="691.86" y1="303.73" x2="686.11" y2="303.73"/>
			<line class="st3" x1="697.73" y1="282.4" x2="680.23" y2="282.4"/>
			<line class="st3" x1="691.86" y1="307.73" x2="686.11" y2="307.73"/>
			<line class="st3" x1="647.86" y1="303.73" x2="642.11" y2="303.73"/>
			<line class="st3" x1="653.73" y1="282.4" x2="636.23" y2="282.4"/>
			<line class="st3" x1="647.86" y1="307.73" x2="642.11" y2="307.73"/>
			<line class="st3" x1="681.98" y1="371.58" x2="651.98" y2="371.58"/>
			<line class="st3" x1="681.98" y1="378.58" x2="651.98" y2="378.58"/>
			<line class="st3" x1="691.86" y1="371.58" x2="686.11" y2="371.58"/>
			<line class="st3" x1="691.86" y1="378.58" x2="686.11" y2="378.58"/>
			<line class="st3" x1="647.86" y1="371.58" x2="642.11" y2="371.58"/>
			<line class="st3" x1="647.86" y1="378.58" x2="642.11" y2="378.58"/>
			<line class="st3" x1="680.23" y1="337.9" x2="653.73" y2="337.9"/>
			<line class="st3" x1="680.23" y1="344.9" x2="653.73" y2="344.9"/>
			<line class="st3" x1="691.86" y1="337.9" x2="686.11" y2="337.9"/>
			<line class="st3" x1="691.86" y1="344.9" x2="686.11" y2="344.9"/>
			<line class="st3" x1="647.86" y1="337.9" x2="642.11" y2="337.9"/>
			<line class="st3" x1="647.86" y1="344.9" x2="642.11" y2="344.9"/>
			<line class="st3" x1="681.98" y1="408.15" x2="651.98" y2="408.15"/>
			<line class="st3" x1="681.98" y1="415.15" x2="651.98" y2="415.15"/>
			<line class="st3" x1="691.86" y1="408.15" x2="686.11" y2="408.15"/>
			<line class="st3" x1="691.86" y1="415.15" x2="686.11" y2="415.15"/>
			<line class="st3" x1="647.86" y1="408.15" x2="642.11" y2="408.15"/>
			<line class="st3" x1="647.86" y1="415.15" x2="642.11" y2="415.15"/>
			<path class="st3" d="M670.17,287.21c0.88,0,1.59,0.71,1.59,1.59v9.19h-3.19v-9.19C668.58,287.92,669.29,287.21,670.17,287.21z"/>
			<path class="st3" d="M666.98,287.21c0.88,0,1.59,0.71,1.59,1.59v9.19h-3.19v-9.19C665.39,287.92,666.1,287.21,666.98,287.21z"/>
			<path class="st3" d="M663.8,287.21c0.88,0,1.59,0.71,1.59,1.59v9.19h-3.19v-9.19C662.2,287.92,662.92,287.21,663.8,287.21z"/>
			<path class="st3" d="M670.17,314.63c0.88,0,1.59,0.71,1.59,1.59v9.19h-3.19v-9.19C668.58,315.35,669.29,314.63,670.17,314.63z"/>
			<path class="st3" d="M674.8,360.8c0.88,0,1.59,0.71,1.59,1.59v9.19h-3.19v-9.19C673.2,361.52,673.92,360.8,674.8,360.8z"/>
			<path class="st3" d="M676.08,397.37c0.88,0,1.59,0.71,1.59,1.59v9.19h-3.19v-9.19C674.48,398.08,675.2,397.37,676.08,397.37z"/>
			<path class="st3" d="M657.58,397.37c0.88,0,1.59,0.71,1.59,1.59v9.19h-3.19v-9.19C655.98,398.08,656.7,397.37,657.58,397.37z"/>
			<path class="st3" d="M666.98,360.8c0.88,0,1.59,0.71,1.59,1.59v9.19h-3.19v-9.19C665.39,361.52,666.1,360.8,666.98,360.8z"/>
			<path class="st3" d="M668.58,397.37c0.88,0,1.59,0.71,1.59,1.59v9.19h-3.19v-9.19C666.98,398.08,667.7,397.37,668.58,397.37z"/>
			<path class="st3" d="M665.39,397.37c0.88,0,1.59,0.71,1.59,1.59v9.19h-3.19v-9.19C663.8,398.08,664.51,397.37,665.39,397.37z"/>
			<path class="st3" d="M676.08,441.24c0.88,0,1.59,0.71,1.59,1.59v6.19h-3.19v-6.19C674.48,441.95,675.2,441.24,676.08,441.24z"/>
			<path class="st3" d="M657.58,441.24c0.88,0,1.59,0.71,1.59,1.59v6.19h-3.19v-6.19C655.98,441.95,656.7,441.24,657.58,441.24z"/>
			<path class="st3" d="M676.08,428.24c0.88,0,1.59,0.71,1.59,1.59v6.19h-3.19v-6.19C674.48,428.95,675.2,428.24,676.08,428.24z"/>
			<path class="st3" d="M657.58,428.24c0.88,0,1.59,0.71,1.59,1.59v6.19h-3.19v-6.19C655.98,428.95,656.7,428.24,657.58,428.24z"/>
			<path class="st3" d="M668.58,428.24c0.88,0,1.59,0.71,1.59,1.59v19.19h-3.19v-19.19C666.98,428.95,667.7,428.24,668.58,428.24z"
				/>
			<path class="st3" d="M665.39,428.24c0.88,0,1.59,0.71,1.59,1.59v19.19h-3.19v-19.19C663.8,428.95,664.51,428.24,665.39,428.24z"
				/>
			<path class="st3" d="M659.17,360.8c0.88,0,1.59,0.71,1.59,1.59v9.19h-3.19v-9.19C657.58,361.52,658.29,360.8,659.17,360.8z"/>
			<path class="st3" d="M666.98,314.63c0.88,0,1.59,0.71,1.59,1.59v9.19h-3.19v-9.19C665.39,315.35,666.1,314.63,666.98,314.63z"/>
			<path class="st3" d="M663.8,314.63c0.88,0,1.59,0.71,1.59,1.59v9.19h-3.19v-9.19C662.2,315.35,662.92,314.63,663.8,314.63z"/>
			<path class="st3" d="M671.77,282.4c0-2.64-2.14-4.78-4.78-4.78c-2.64,0-4.78,2.14-4.78,4.78"/>
			<polyline class="st3" points="651.98,361.65 653.73,350.4 653.73,282.4 			"/>
			<polyline class="st3" points="680.23,282.4 680.23,350.4 681.98,361.65 			"/>
			<polyline class="st3" points="685.48,350.4 681.98,361.65 681.98,463.15 			"/>
			<line class="st3" x1="685.48" y1="350.4" x2="688.98" y2="361.65"/>
			<line class="st3" x1="688.98" y1="361.65" x2="692.48" y2="350.4"/>
			<line class="st3" x1="692.48" y1="350.4" x2="695.98" y2="361.65"/>
			<line class="st3" x1="637.98" y1="361.65" x2="641.48" y2="350.4"/>
			<line class="st3" x1="641.48" y1="350.4" x2="644.98" y2="361.65"/>
			<line class="st3" x1="644.98" y1="361.65" x2="648.48" y2="350.4"/>
			<polyline class="st3" points="648.48,350.4 651.98,361.65 651.98,463.15 			"/>
			
				<rect x="662.2" y="325.41" transform="matrix(-1 -1.224647e-16 1.224647e-16 -1 1333.9694 655.6849)" class="st3" width="9.56" height="4.86"/>
			<line class="st3" x1="690.3" y1="463.15" x2="643.67" y2="463.15"/>
			<line class="st3" x1="704.86" y1="468.9" x2="629.11" y2="468.9"/>
			<line class="st3" x1="704.86" y1="472.4" x2="629.11" y2="472.4"/>
			<line class="st3" x1="704.86" y1="475.9" x2="629.11" y2="475.9"/>
			<path class="st3" d="M691.43,509.29c0,0,0-4.3,0-5.58c0-1.28-5.47-7.52-24.44-13.33"/>
			<line class="st3" x1="666.98" y1="494.48" x2="666.98" y2="505.5"/>
			<path class="st3" d="M642.54,509.29c0,0,0-4.3,0-5.58c0-1.28,5.47-7.52,24.44-13.33"/>
			<line class="st3" x1="688.98" y1="250.65" x2="688.98" y2="239.02"/>
			<line class="st3" x1="691.86" y1="242.83" x2="686.11" y2="242.83"/>
			<line class="st3" x1="644.98" y1="250.65" x2="644.98" y2="239.02"/>
			<line class="st3" x1="647.86" y1="242.83" x2="642.11" y2="242.83"/>
			<line class="st3" x1="666.98" y1="235.73" x2="666.98" y2="222.11"/>
			<line class="st3" x1="669.86" y1="225.92" x2="664.11" y2="225.92"/>
			<line class="st3" x1="636.23" y1="315.56" x2="636.23" y2="345.23"/>
			<line class="st3" x1="636.23" y1="325.41" x2="507.88" y2="325.41"/>
			<line class="st3" x1="507.88" y1="329.65" x2="636.23" y2="329.65"/>
			
				<rect x="627.83" y="317.01" transform="matrix(-0.7071 0.7071 -0.7071 -0.7071 1304.3311 100.6972)" class="st3" width="6.96" height="6.96"/>
			
				<rect x="617.98" y="317.01" transform="matrix(-0.7071 0.7071 -0.7071 -0.7071 1287.5201 107.6683)" class="st3" width="6.96" height="6.96"/>
			
				<rect x="608.13" y="317.01" transform="matrix(-0.7071 0.7071 -0.7071 -0.7071 1270.7048 114.6258)" class="st3" width="6.96" height="6.96"/>
			
				<rect x="598.28" y="317.01" transform="matrix(-0.7071 0.7071 -0.7071 -0.7071 1253.8937 121.5968)" class="st3" width="6.96" height="6.96"/>
			
				<rect x="588.43" y="317.01" transform="matrix(-0.7071 0.7071 -0.7071 -0.7071 1237.0804 128.5611)" class="st3" width="6.96" height="6.96"/>
			
				<rect x="578.58" y="317.01" transform="matrix(-0.7071 0.7071 -0.7071 -0.7071 1220.2672 135.5253)" class="st3" width="6.96" height="6.96"/>
			
				<rect x="568.73" y="317.01" transform="matrix(-0.7071 0.7071 -0.7071 -0.7071 1203.4536 142.4883)" class="st3" width="6.96" height="6.96"/>
			
				<rect x="558.89" y="317.01" transform="matrix(-0.7071 0.7071 -0.7071 -0.7071 1186.6404 149.4526)" class="st3" width="6.96" height="6.96"/>
			
				<rect x="549.04" y="317.01" transform="matrix(-0.7071 0.7071 -0.7071 -0.7071 1169.8275 156.4181)" class="st3" width="6.96" height="6.96"/>
			
				<rect x="539.19" y="317.01" transform="matrix(-0.7071 0.7071 -0.7071 -0.7071 1153.0143 163.3824)" class="st3" width="6.96" height="6.96"/>
			
				<rect x="529.34" y="317.01" transform="matrix(-0.7071 0.7071 -0.7071 -0.7071 1136.2012 170.3466)" class="st3" width="6.96" height="6.96"/>
			
				<rect x="519.49" y="317.01" transform="matrix(-0.7071 0.7071 -0.7071 -0.7071 1119.3878 177.3109)" class="st3" width="6.96" height="6.96"/>
			
				<rect x="509.64" y="317.01" transform="matrix(-0.7071 0.7071 -0.7071 -0.7071 1102.5732 184.2692)" class="st3" width="6.96" height="6.96"/>
			<line class="st3" x1="636.23" y1="336.65" x2="358.4" y2="336.65"/>
			<line class="st3" x1="631.31" y1="340.65" x2="621.46" y2="340.65"/>
			<line class="st3" x1="616.08" y1="340.65" x2="606.23" y2="340.65"/>
			<line class="st3" x1="600.84" y1="340.65" x2="590.99" y2="340.65"/>
			<line class="st3" x1="585.61" y1="340.65" x2="575.76" y2="340.65"/>
			<line class="st3" x1="570.37" y1="340.65" x2="560.52" y2="340.65"/>
			<line class="st3" x1="555.14" y1="340.65" x2="545.29" y2="340.65"/>
			<line class="st3" x1="539.9" y1="340.65" x2="530.05" y2="340.65"/>
			<line class="st3" x1="524.67" y1="340.65" x2="514.82" y2="340.65"/>
			<line class="st3" x1="509.44" y1="340.65" x2="499.59" y2="340.65"/>
			<line class="st3" x1="542.27" y1="364.34" x2="637.98" y2="460.06"/>
			<polyline class="st3" points="537.9,368.7 549.45,371.53 556.51,391.58 576.56,398.63 580.09,422.21 603.67,425.74 
				602.64,453.87 630.77,452.85 628.56,463.15 			"/>
			<polyline class="st3" points="622.4,509.29 622.4,463.15 637.98,463.15 637.98,452.99 			"/>
		</g>
	</g>
	<g>
		<g>
			<path class="st6" d="M881.88,289.9v219.67h40h200h40V289.9c0-9.83-1.67-13.17-10.67-20.17c-5.55-4.32-6.33-16.67-6.33-16.67
				s8.67-1.33-3-10.83c-11.67,9.5-3,10.83-3,10.83s-0.78,12.35-6.33,16.67c-9,7-10.67,10.33-10.67,20.17v44.17l-13.33,0v13.33
				h-13.33v-13.33h-13.33v13.33h-13.33v-13.33h-13.33v13.33h-13.33v-13.33h-13.33v13.33h-13.33v-13.33h-13.33v13.33h-13.33v-13.33
				h-13.33v13.33h-13.33v-13.33h-13.33v13.33h-13.33v-13.33h-13.33V289.9c0-9.83-1.67-13.17-10.67-20.17
				c-5.55-4.32-6.33-16.67-6.33-16.67s8.67-1.33-3-10.83c-11.67,9.5-3,10.83-3,10.83s-0.78,12.35-6.33,16.67
				C883.55,276.73,881.88,280.06,881.88,289.9z"/>
		</g>
		<polyline class="st7" points="921.88,289.9 921.88,509.56 881.88,509.56 881.88,289.9 		"/>
		<path class="st7" d="M921.88,289.9c0-9.83-1.67-13.17-10.67-20.17c-5.55-4.32-6.33-16.67-6.33-16.67s8.67-1.33-3-10.83
			c-11.67,9.5-3,10.83-3,10.83s-0.78,12.35-6.33,16.67c-9,7-10.67,10.33-10.67,20.17"/>
		<line class="st8" x1="881.88" y1="289.9" x2="921.88" y2="289.9"/>
		<path class="st8" d="M896.51,295.82c1.03,0,1.87,0.84,1.87,1.87v7.76h-3.73v-7.76C894.64,296.65,895.48,295.82,896.51,295.82z"/>
		<path class="st8" d="M907.26,295.82c1.03,0,1.87,0.84,1.87,1.87v7.76h-3.73v-7.76C905.39,296.65,906.23,295.82,907.26,295.82z"/>
		<path class="st8" d="M896.51,318.94c1.03,0,1.87,0.84,1.87,1.87v7.76h-3.73v-7.76C894.64,319.78,895.48,318.94,896.51,318.94z"/>
		<path class="st8" d="M907.26,318.94c1.03,0,1.87,0.84,1.87,1.87v7.76h-3.73v-7.76C905.39,319.78,906.23,318.94,907.26,318.94z"/>
		<path class="st8" d="M901.88,401.94c1.03,0,1.87,0.84,1.87,1.87v7.76h-3.73v-7.76C900.02,402.78,900.85,401.94,901.88,401.94z"/>
		<path class="st8" d="M941.88,427.94c3.24,0,5.87,2.63,5.87,5.87v12.42h-11.75v-12.42C936.01,430.57,938.64,427.94,941.88,427.94z"
			/>
		<path class="st8" d="M995.21,427.94c3.24,0,5.87,2.63,5.87,5.87v12.42h-11.75v-12.42C989.34,430.57,991.97,427.94,995.21,427.94z"
			/>
		<path class="st8" d="M995.21,461.11c3.24,0,5.87,2.63,5.87,5.87v12.42h-11.75v-12.42C989.34,463.74,991.97,461.11,995.21,461.11z"
			/>
		<path class="st8" d="M1048.55,461.11c3.24,0,5.87,2.63,5.87,5.87v12.42h-11.75v-12.42
			C1042.67,463.74,1045.3,461.11,1048.55,461.11z"/>
		<path class="st8" d="M1101.88,461.11c3.24,0,5.87,2.63,5.87,5.87v12.42h-11.75v-12.42
			C1096.01,463.74,1098.64,461.11,1101.88,461.11z"/>
		<path class="st8" d="M1048.55,427.94c3.24,0,5.87,2.63,5.87,5.87v12.42h-11.75v-12.42
			C1042.67,430.57,1045.3,427.94,1048.55,427.94z"/>
		<path class="st8" d="M1048.55,375.7c2.12,0,3.83,1.72,3.83,3.83v18.1h-7.67v-18.1C1044.71,377.42,1046.43,375.7,1048.55,375.7z"/>
		<path class="st8" d="M931.55,385.38c1.47,0,2.67,1.19,2.67,2.67v9.59h-5.33v-9.59C928.88,386.57,930.08,385.38,931.55,385.38z"/>
		<path class="st8" d="M936.88,385.38c1.47,0,2.67,1.19,2.67,2.67v9.59h-5.33v-9.59C934.21,386.57,935.41,385.38,936.88,385.38z"/>
		<path class="st8" d="M946.88,385.38c1.47,0,2.67,1.19,2.67,2.67v9.59h-5.33v-9.59C944.21,386.57,945.41,385.38,946.88,385.38z"/>
		<path class="st8" d="M952.21,385.38c1.47,0,2.67,1.19,2.67,2.67v9.59h-5.33v-9.59C949.55,386.57,950.74,385.38,952.21,385.38z"/>
		<path class="st8" d="M1101.88,375.7c2.12,0,3.83,1.72,3.83,3.83v18.1h-7.67v-18.1C1098.05,377.42,1099.76,375.7,1101.88,375.7z"/>
		<path class="st8" d="M1101.88,427.94c3.24,0,5.87,2.63,5.87,5.87v12.42h-11.75v-12.42
			C1096.01,430.57,1098.64,427.94,1101.88,427.94z"/>
		<path class="st8" d="M941.88,461.11c5.9,0,10.69,4.79,10.69,10.69v37.76h-21.38V471.8C931.19,465.89,935.98,461.11,941.88,461.11z
			"/>
		<line class="st8" x1="898.88" y1="253.06" x2="904.88" y2="253.06"/>
		<path class="st8" d="M890.6,289.9c0,0-0.44-7.19,4.06-13.83c4.74-7,6.37-13.75,6.37-23"/>
		<line class="st8" x1="901.88" y1="242.23" x2="901.88" y2="220.9"/>
		<polyline class="st8" points="890.6,289.9 890.6,293.55 886.94,293.55 886.94,297.21 890.6,297.21 890.6,300.87 886.94,300.87 
			886.94,304.52 890.6,304.52 890.6,308.18 886.94,308.18 886.94,311.84 890.6,311.84 890.6,315.49 886.94,315.49 886.94,319.15 
			890.6,319.15 890.6,322.81 886.94,322.81 886.94,326.46 890.6,326.46 890.6,330.12 886.94,330.12 886.94,333.77 890.6,333.77 
			890.6,337.43 886.94,337.43 886.94,341.09 890.6,341.09 890.6,344.74 		"/>
		<rect x="961.88" y="418.9" class="st8" width="13.33" height="90.67"/>
		<rect x="964.29" y="367.78" class="st8" width="8.51" height="51.12"/>
		<rect x="966.21" y="354.11" class="st8" width="4.67" height="13.67"/>
		<rect x="1017.63" y="367.78" class="st8" width="8.51" height="51.12"/>
		<rect x="1019.55" y="354.11" class="st8" width="4.67" height="13.67"/>
		<rect x="1070.96" y="367.78" class="st8" width="8.51" height="51.12"/>
		<rect x="1072.88" y="354.11" class="st8" width="4.67" height="13.67"/>
		<rect x="1015.21" y="418.9" class="st8" width="13.33" height="90.67"/>
		<rect x="1068.55" y="418.9" class="st8" width="13.33" height="90.67"/>
		<path class="st8" d="M913.16,289.9c0,0,0.44-7.19-4.06-13.83c-4.74-7-6.37-13.75-6.37-23"/>
		<polyline class="st8" points="913.16,289.9 913.16,293.55 916.82,293.55 916.82,297.21 913.16,297.21 913.16,300.87 
			916.82,300.87 916.82,304.52 913.16,304.52 913.16,308.18 916.82,308.18 916.82,311.84 913.16,311.84 913.16,315.49 
			916.82,315.49 916.82,319.15 913.16,319.15 913.16,322.81 916.82,322.81 916.82,326.46 913.16,326.46 913.16,330.12 
			916.82,330.12 916.82,333.77 913.16,333.77 913.16,337.43 916.82,337.43 916.82,341.09 913.16,341.09 913.16,344.74 		"/>
		<polyline class="st8" points="890.6,344.74 886.94,344.74 886.94,348.4 890.6,348.4 890.6,352.06 886.94,352.06 886.94,355.71 
			890.6,355.71 890.6,359.37 886.94,359.37 886.94,363.03 890.6,363.03 890.6,366.68 886.94,366.68 886.94,370.34 890.6,370.34 
			890.6,374 886.94,374 886.94,377.65 890.6,377.65 890.6,381.31 886.94,381.31 886.94,384.97 890.6,384.97 890.6,388.62 
			886.94,388.62 886.94,392.28 890.6,392.28 890.6,395.93 		"/>
		<polyline class="st8" points="913.16,344.74 916.82,344.74 916.82,348.4 913.16,348.4 913.16,352.06 916.82,352.06 916.82,355.71 
			913.16,355.71 913.16,359.37 916.82,359.37 916.82,363.03 913.16,363.03 913.16,366.68 916.82,366.68 916.82,370.34 
			913.16,370.34 913.16,374 916.82,374 916.82,377.65 913.16,377.65 913.16,381.31 916.82,381.31 916.82,384.97 913.16,384.97 
			913.16,388.62 916.82,388.62 916.82,392.28 913.16,392.28 913.16,395.93 		"/>
		<polyline class="st8" points="890.6,395.93 886.94,395.93 886.94,399.59 890.6,399.59 890.6,403.25 886.94,403.25 886.94,406.9 
			890.6,406.9 890.6,410.56 886.94,410.56 886.94,414.22 890.6,414.22 890.6,417.87 886.94,417.87 886.94,421.53 890.6,421.53 
			890.6,425.19 886.94,425.19 886.94,428.84 890.6,428.84 890.6,432.5 886.94,432.5 886.94,436.16 890.6,436.16 890.6,439.81 
			886.94,439.81 886.94,443.47 890.6,443.47 890.6,447.13 		"/>
		<polyline class="st8" points="913.16,395.93 916.82,395.93 916.82,399.59 913.16,399.59 913.16,403.25 916.82,403.25 
			916.82,406.9 913.16,406.9 913.16,410.56 916.82,410.56 916.82,414.22 913.16,414.22 913.16,417.87 916.82,417.87 916.82,421.53 
			913.16,421.53 913.16,425.19 916.82,425.19 916.82,428.84 913.16,428.84 913.16,432.5 916.82,432.5 916.82,436.16 913.16,436.16 
			913.16,439.81 916.82,439.81 916.82,443.47 913.16,443.47 913.16,447.13 		"/>
		<polyline class="st8" points="970.38,419.06 970.38,422.72 966.72,422.72 966.72,426.38 970.38,426.38 970.38,430.03 
			966.72,430.03 966.72,433.69 970.38,433.69 970.38,437.34 966.72,437.34 966.72,441 970.38,441 970.38,444.66 966.72,444.66 
			966.72,448.31 970.38,448.31 970.38,451.97 966.72,451.97 966.72,455.63 970.38,455.63 970.38,459.28 966.72,459.28 
			966.72,462.94 970.38,462.94 970.38,466.6 966.72,466.6 966.72,470.25 970.38,470.25 970.38,473.91 966.72,473.91 966.72,477.57 
			970.38,477.57 970.38,481.22 966.72,481.22 966.72,484.88 970.38,484.88 970.38,488.54 966.72,488.54 966.72,492.19 
			970.38,492.19 970.38,495.85 966.72,495.85 966.72,499.5 970.38,499.5 970.38,503.16 966.72,503.16 966.72,506.82 970.38,506.82 
			970.38,509.56 		"/>
		<polyline class="st8" points="1023.71,419.06 1023.71,422.72 1020.05,422.72 1020.05,426.38 1023.71,426.38 1023.71,430.03 
			1020.05,430.03 1020.05,433.69 1023.71,433.69 1023.71,437.34 1020.05,437.34 1020.05,441 1023.71,441 1023.71,444.66 
			1020.05,444.66 1020.05,448.31 1023.71,448.31 1023.71,451.97 1020.05,451.97 1020.05,455.63 1023.71,455.63 1023.71,459.28 
			1020.05,459.28 1020.05,462.94 1023.71,462.94 1023.71,466.6 1020.05,466.6 1020.05,470.25 1023.71,470.25 1023.71,473.91 
			1020.05,473.91 1020.05,477.57 1023.71,477.57 1023.71,481.22 1020.05,481.22 1020.05,484.88 1023.71,484.88 1023.71,488.54 
			1020.05,488.54 1020.05,492.19 1023.71,492.19 1023.71,495.85 1020.05,495.85 1020.05,499.5 1023.71,499.5 1023.71,503.16 
			1020.05,503.16 1020.05,506.82 1023.71,506.82 1023.71,509.56 		"/>
		<polyline class="st8" points="1077.04,419.06 1077.04,422.72 1073.39,422.72 1073.39,426.38 1077.04,426.38 1077.04,430.03 
			1073.39,430.03 1073.39,433.69 1077.04,433.69 1077.04,437.34 1073.39,437.34 1073.39,441 1077.04,441 1077.04,444.66 
			1073.39,444.66 1073.39,448.31 1077.04,448.31 1077.04,451.97 1073.39,451.97 1073.39,455.63 1077.04,455.63 1077.04,459.28 
			1073.39,459.28 1073.39,462.94 1077.04,462.94 1077.04,466.6 1073.39,466.6 1073.39,470.25 1077.04,470.25 1077.04,473.91 
			1073.39,473.91 1073.39,477.57 1077.04,477.57 1077.04,481.22 1073.39,481.22 1073.39,484.88 1077.04,484.88 1077.04,488.54 
			1073.39,488.54 1073.39,492.19 1077.04,492.19 1077.04,495.85 1073.39,495.85 1073.39,499.5 1077.04,499.5 1077.04,503.16 
			1073.39,503.16 1073.39,506.82 1077.04,506.82 1077.04,509.56 		"/>
		<polyline class="st7" points="1161.88,289.9 1161.88,509.56 1121.88,509.56 1121.88,289.9 		"/>
		<path class="st7" d="M1161.88,289.9c0-9.83-1.67-13.17-10.67-20.17c-5.55-4.32-6.33-16.67-6.33-16.67s8.67-1.33-3-10.83
			c-11.67,9.5-3,10.83-3,10.83s-0.78,12.35-6.33,16.67c-9,7-10.67,10.33-10.67,20.17"/>
		<line class="st8" x1="1121.88" y1="289.9" x2="1161.88" y2="289.9"/>
		<path class="st8" d="M1136.51,295.82c1.03,0,1.87,0.84,1.87,1.87v7.76h-3.73v-7.76C1134.64,296.65,1135.48,295.82,1136.51,295.82z
			"/>
		<path class="st8" d="M1147.26,295.82c1.03,0,1.87,0.84,1.87,1.87v7.76h-3.73v-7.76C1145.39,296.65,1146.23,295.82,1147.26,295.82z
			"/>
		<path class="st8" d="M1136.51,318.94c1.03,0,1.87,0.84,1.87,1.87v7.76h-3.73v-7.76C1134.64,319.78,1135.48,318.94,1136.51,318.94z
			"/>
		<path class="st8" d="M1147.26,318.94c1.03,0,1.87,0.84,1.87,1.87v7.76h-3.73v-7.76C1145.39,319.78,1146.23,318.94,1147.26,318.94z
			"/>
		<path class="st8" d="M1141.88,401.94c1.03,0,1.87,0.84,1.87,1.87v7.76h-3.73v-7.76C1140.02,402.78,1140.85,401.94,1141.88,401.94z
			"/>
		<line class="st8" x1="1138.88" y1="253.06" x2="1144.88" y2="253.06"/>
		<path class="st8" d="M1130.6,289.9c0,0-0.44-7.19,4.06-13.83c4.74-7,6.37-13.75,6.37-23"/>
		<line class="st8" x1="1141.88" y1="242.23" x2="1141.88" y2="220.9"/>
		<polyline class="st8" points="1130.6,289.9 1130.6,293.55 1126.94,293.55 1126.94,297.21 1130.6,297.21 1130.6,300.87 
			1126.94,300.87 1126.94,304.52 1130.6,304.52 1130.6,308.18 1126.94,308.18 1126.94,311.84 1130.6,311.84 1130.6,315.49 
			1126.94,315.49 1126.94,319.15 1130.6,319.15 1130.6,322.81 1126.94,322.81 1126.94,326.46 1130.6,326.46 1130.6,330.12 
			1126.94,330.12 1126.94,333.77 1130.6,333.77 1130.6,337.43 1126.94,337.43 1126.94,341.09 1130.6,341.09 1130.6,344.74 		"/>
		<path class="st8" d="M1153.16,289.9c0,0,0.44-7.19-4.06-13.83c-4.74-7-6.37-13.75-6.37-23"/>
		<polyline class="st8" points="1153.16,289.9 1153.16,293.55 1156.82,293.55 1156.82,297.21 1153.16,297.21 1153.16,300.87 
			1156.82,300.87 1156.82,304.52 1153.16,304.52 1153.16,308.18 1156.82,308.18 1156.82,311.84 1153.16,311.84 1153.16,315.49 
			1156.82,315.49 1156.82,319.15 1153.16,319.15 1153.16,322.81 1156.82,322.81 1156.82,326.46 1153.16,326.46 1153.16,330.12 
			1156.82,330.12 1156.82,333.77 1153.16,333.77 1153.16,337.43 1156.82,337.43 1156.82,341.09 1153.16,341.09 1153.16,344.74 		"/>
		<polyline class="st8" points="1130.6,344.74 1126.94,344.74 1126.94,348.4 1130.6,348.4 1130.6,352.06 1126.94,352.06 
			1126.94,355.71 1130.6,355.71 1130.6,359.37 1126.94,359.37 1126.94,363.03 1130.6,363.03 1130.6,366.68 1126.94,366.68 
			1126.94,370.34 1130.6,370.34 1130.6,374 1126.94,374 1126.94,377.65 1130.6,377.65 1130.6,381.31 1126.94,381.31 1126.94,384.97 
			1130.6,384.97 1130.6,388.62 1126.94,388.62 1126.94,392.28 1130.6,392.28 1130.6,395.93 		"/>
		<polyline class="st8" points="1153.16,344.74 1156.82,344.74 1156.82,348.4 1153.16,348.4 1153.16,352.06 1156.82,352.06 
			1156.82,355.71 1153.16,355.71 1153.16,359.37 1156.82,359.37 1156.82,363.03 1153.16,363.03 1153.16,366.68 1156.82,366.68 
			1156.82,370.34 1153.16,370.34 1153.16,374 1156.82,374 1156.82,377.65 1153.16,377.65 1153.16,381.31 1156.82,381.31 
			1156.82,384.97 1153.16,384.97 1153.16,388.62 1156.82,388.62 1156.82,392.28 1153.16,392.28 1153.16,395.93 		"/>
		<polyline class="st8" points="1130.6,395.93 1126.94,395.93 1126.94,399.59 1130.6,399.59 1130.6,403.25 1126.94,403.25 
			1126.94,406.9 1130.6,406.9 1130.6,410.56 1126.94,410.56 1126.94,414.22 1130.6,414.22 1130.6,417.87 1126.94,417.87 
			1126.94,421.53 1130.6,421.53 1130.6,425.19 1126.94,425.19 1126.94,428.84 1130.6,428.84 1130.6,432.5 1126.94,432.5 
			1126.94,436.16 1130.6,436.16 1130.6,439.81 1126.94,439.81 1126.94,443.47 1130.6,443.47 1130.6,447.13 		"/>
		<polyline class="st8" points="1153.16,395.93 1156.82,395.93 1156.82,399.59 1153.16,399.59 1153.16,403.25 1156.82,403.25 
			1156.82,406.9 1153.16,406.9 1153.16,410.56 1156.82,410.56 1156.82,414.22 1153.16,414.22 1153.16,417.87 1156.82,417.87 
			1156.82,421.53 1153.16,421.53 1153.16,425.19 1156.82,425.19 1156.82,428.84 1153.16,428.84 1153.16,432.5 1156.82,432.5 
			1156.82,436.16 1153.16,436.16 1153.16,439.81 1156.82,439.81 1156.82,443.47 1153.16,443.47 1153.16,447.13 		"/>
		<polyline class="st8" points="890.6,447.13 886.94,447.13 886.94,450.78 890.6,450.78 890.6,454.44 886.94,454.44 886.94,458.09 
			890.6,458.09 890.6,461.75 886.94,461.75 886.94,465.41 890.6,465.41 890.6,469.06 886.94,469.06 886.94,472.72 890.6,472.72 
			890.6,476.38 886.94,476.38 886.94,480.03 890.6,480.03 890.6,483.69 886.94,483.69 886.94,487.35 890.6,487.35 890.6,491 
			886.94,491 886.94,494.66 890.6,494.66 890.6,498.32 		"/>
		<polyline class="st8" points="913.16,447.13 916.82,447.13 916.82,450.78 913.16,450.78 913.16,454.44 916.82,454.44 
			916.82,458.09 913.16,458.09 913.16,461.75 916.82,461.75 916.82,465.41 913.16,465.41 913.16,469.06 916.82,469.06 
			916.82,472.72 913.16,472.72 913.16,476.38 916.82,476.38 916.82,480.03 913.16,480.03 913.16,483.69 916.82,483.69 
			916.82,487.35 913.16,487.35 913.16,491 916.82,491 916.82,494.66 913.16,494.66 913.16,498.32 		"/>
		<polyline class="st8" points="890.6,498.32 886.94,498.32 886.94,501.97 890.6,501.97 890.6,505.63 886.94,505.63 886.94,509.29 
					"/>
		<polyline class="st8" points="913.16,498.32 916.82,498.32 916.82,501.97 913.16,501.97 913.16,505.63 916.82,505.63 
			916.82,509.29 		"/>
		<polyline class="st8" points="1130.6,447.13 1126.94,447.13 1126.94,450.78 1130.6,450.78 1130.6,454.44 1126.94,454.44 
			1126.94,458.09 1130.6,458.09 1130.6,461.75 1126.94,461.75 1126.94,465.41 1130.6,465.41 1130.6,469.06 1126.94,469.06 
			1126.94,472.72 1130.6,472.72 1130.6,476.38 1126.94,476.38 1126.94,480.03 1130.6,480.03 1130.6,483.69 1126.94,483.69 
			1126.94,487.35 1130.6,487.35 1130.6,491 1126.94,491 1126.94,494.66 1130.6,494.66 1130.6,498.32 		"/>
		<polyline class="st8" points="1153.16,447.13 1156.82,447.13 1156.82,450.78 1153.16,450.78 1153.16,454.44 1156.82,454.44 
			1156.82,458.09 1153.16,458.09 1153.16,461.75 1156.82,461.75 1156.82,465.41 1153.16,465.41 1153.16,469.06 1156.82,469.06 
			1156.82,472.72 1153.16,472.72 1153.16,476.38 1156.82,476.38 1156.82,480.03 1153.16,480.03 1153.16,483.69 1156.82,483.69 
			1156.82,487.35 1153.16,487.35 1153.16,491 1156.82,491 1156.82,494.66 1153.16,494.66 1153.16,498.32 		"/>
		<polyline class="st8" points="1130.6,498.32 1126.94,498.32 1126.94,501.97 1130.6,501.97 1130.6,505.63 1126.94,505.63 
			1126.94,509.29 		"/>
		<polyline class="st8" points="1153.16,498.32 1156.82,498.32 1156.82,501.97 1153.16,501.97 1153.16,505.63 1156.82,505.63 
			1156.82,509.29 		"/>
		<line class="st7" x1="921.88" y1="509.56" x2="1121.88" y2="509.56"/>
		<path class="st8" d="M921.88,431.53c0-11.05,8.95-20,20-20c11.05,0,20,8.95,20,20"/>
		<path class="st8" d="M975.21,431.53c0-11.05,8.95-20,20-20c11.05,0,20,8.95,20,20"/>
		<path class="st8" d="M1028.55,431.53c0-11.05,8.95-20,20-20c11.05,0,20,8.95,20,20"/>
		<path class="st8" d="M1081.88,431.53c0-11.05,8.95-20,20-20c11.05,0,20,8.95,20,20"/>
		<line class="st8" x1="931.05" y1="452.56" x2="952.71" y2="452.56"/>
		<line class="st8" x1="984.38" y1="452.56" x2="1006.05" y2="452.56"/>
		<line class="st8" x1="1037.71" y1="452.56" x2="1059.38" y2="452.56"/>
		<line class="st8" x1="1091.05" y1="452.56" x2="1112.71" y2="452.56"/>
		<path class="st8" d="M928.88,388.04c0-2.95,2.39-5.33,5.33-5.33c2.95,0,5.33,2.39,5.33,5.33"/>
		<path class="st8" d="M944.21,388.04c0-2.95,2.39-5.33,5.33-5.33s5.33,2.39,5.33,5.33"/>
		<path class="st8" d="M984.88,385.38c1.47,0,2.67,1.19,2.67,2.67v9.59h-5.33v-9.59C982.21,386.57,983.41,385.38,984.88,385.38z"/>
		<path class="st8" d="M990.21,385.38c1.47,0,2.67,1.19,2.67,2.67v9.59h-5.33v-9.59C987.55,386.57,988.74,385.38,990.21,385.38z"/>
		<path class="st8" d="M1000.21,385.38c1.47,0,2.67,1.19,2.67,2.67v9.59h-5.33v-9.59C997.55,386.57,998.74,385.38,1000.21,385.38z"
			/>
		<path class="st8" d="M1005.55,385.38c1.47,0,2.67,1.19,2.67,2.67v9.59h-5.33v-9.59C1002.88,386.57,1004.08,385.38,1005.55,385.38z
			"/>
		<path class="st8" d="M982.21,388.04c0-2.95,2.39-5.33,5.33-5.33s5.33,2.39,5.33,5.33"/>
		<path class="st8" d="M997.55,388.04c0-2.95,2.39-5.33,5.33-5.33c2.95,0,5.33,2.39,5.33,5.33"/>
		<line class="st8" x1="966.21" y1="369.9" x2="970.88" y2="369.9"/>
		<line class="st8" x1="1019.55" y1="369.9" x2="1024.22" y2="369.9"/>
		<line class="st8" x1="1072.88" y1="369.9" x2="1077.55" y2="369.9"/>
	</g>
	<g>
		<path class="st11" d="M970.91,160.91v-41.25h4.6v37.07h11.79v4.18H970.91z"/>
		<path class="st11" d="M991.88,129.61c0-6.31,3.12-10.37,9.43-10.37c6.36,0,9.49,4.07,9.49,10.37v21.33
			c0,6.25-3.12,10.37-9.49,10.37c-6.31,0-9.43-4.12-9.43-10.37V129.61z M996.42,151.18c0,3.77,1.59,5.95,4.89,5.95
			c3.36,0,4.89-2.18,4.89-5.95v-21.8c0-3.71-1.53-5.95-4.89-5.95c-3.3,0-4.89,2.24-4.89,5.95V151.18z"/>
		<path class="st11" d="M1020.7,160.91h-4.12v-41.25h5.83l9.55,29.82v-29.82h4.07v41.25h-4.77l-10.55-33.35V160.91z"/>
		<path class="st11" d="M1051.87,119.66c6.42,0,9.37,3.89,9.37,10.25v20.8c0,6.31-2.95,10.19-9.37,10.19h-9.66v-41.25H1051.87z
			 M1051.81,156.72c3.3,0,4.89-2.06,4.89-5.83v-21.21c0-3.77-1.59-5.83-4.95-5.83h-4.95v32.88H1051.81z"/>
		<path class="st11" d="M1066.66,129.61c0-6.31,3.12-10.37,9.43-10.37c6.36,0,9.49,4.07,9.49,10.37v21.33
			c0,6.25-3.12,10.37-9.49,10.37c-6.31,0-9.43-4.12-9.43-10.37V129.61z M1071.19,151.18c0,3.77,1.59,5.95,4.89,5.95
			c3.36,0,4.89-2.18,4.89-5.95v-21.8c0-3.71-1.53-5.95-4.89-5.95c-3.3,0-4.89,2.24-4.89,5.95V151.18z"/>
		<path class="st11" d="M1095.47,160.91h-4.12v-41.25h5.83l9.55,29.82v-29.82h4.07v41.25h-4.77l-10.55-33.35V160.91z"/>
	</g>
	<g>
		<g>
			<path class="st6" d="M1614.1,347.3l4.85-2.94l2.94-16.45c0,0-0.35-2.77-3.9-5.89c-3.83-3.36-3.9-7.27-3.9-7.27
				s-0.06,3.91-3.9,7.27c-3.55,3.12-3.9,5.89-3.9,5.89l2.94,16.45L1614.1,347.3z"/>
		</g>
		<g>
			<path class="st6" d="M1641.68,347.3l4.85-2.94l2.94-16.45c0,0-0.35-2.77-3.9-5.89c-3.83-3.36-3.9-7.27-3.9-7.27
				s-0.06,3.91-3.9,7.27c-3.55,3.12-3.9,5.89-3.9,5.89l2.94,16.45L1641.68,347.3z"/>
		</g>
		<g>
			<polygon class="st6" points="1627.83,509.56 1637.14,509.56 1631.33,464.63 1627.83,464.63 1624.32,464.63 1618.51,509.56 			"/>
		</g>
		<path class="st7" d="M1614.1,314.75c0,0-0.06,3.91-3.9,7.27c-3.55,3.12-3.9,5.89-3.9,5.89l2.94,16.45l4.85,2.94"/>
		<line class="st7" x1="1609.68" y1="347.3" x2="1627.95" y2="347.3"/>
		<path class="st7" d="M1614.1,314.75c0,0,0.06,3.91,3.9,7.27c3.55,3.12,3.9,5.89,3.9,5.89l-2.94,16.45l-4.85,2.94"/>
		<path class="st7" d="M1641.68,314.75c0,0,0.06,3.91,3.9,7.27c3.55,3.12,3.9,5.89,3.9,5.89l-2.94,16.45l-4.85,2.94"/>
		<line class="st7" x1="1646.09" y1="347.3" x2="1627.83" y2="347.3"/>
		<path class="st7" d="M1641.68,314.75c0,0-0.06,3.91-3.9,7.27c-3.55,3.12-3.9,5.89-3.9,5.89l2.94,16.45l4.85,2.94"/>
		<line class="st7" x1="1627.83" y1="337.78" x2="1627.83" y2="464.63"/>
		<polyline class="st7" points="1627.83,464.63 1624.32,464.63 1618.51,509.56 1627.83,509.56 		"/>
		<line class="st7" x1="1625.28" y1="410.68" x2="1630.37" y2="410.68"/>
		<line class="st7" x1="1625.28" y1="415.1" x2="1630.37" y2="415.1"/>
		<line class="st7" x1="1625.28" y1="419.52" x2="1630.37" y2="419.52"/>
		<polyline class="st7" points="1627.83,464.63 1631.33,464.63 1637.14,509.56 1627.83,509.56 		"/>
		<line class="st8" x1="1619.49" y1="502.03" x2="1636.22" y2="502.03"/>
		<line class="st8" x1="1626.33" y1="481.42" x2="1625.21" y2="498.05"/>
		<line class="st8" x1="1629.37" y1="481.42" x2="1630.5" y2="498.05"/>
		<line class="st8" x1="1622.75" y1="476.76" x2="1632.9" y2="476.76"/>
		<line class="st8" x1="1606.3" y1="327.91" x2="1621.89" y2="327.91"/>
		<line class="st8" x1="1633.89" y1="327.91" x2="1649.47" y2="327.91"/>
		<line class="st8" x1="1611.15" y1="327.91" x2="1614.1" y2="347.3"/>
		<line class="st8" x1="1617.04" y1="327.91" x2="1614.1" y2="347.3"/>
		<line class="st8" x1="1638.73" y1="327.91" x2="1641.68" y2="347.3"/>
		<line class="st8" x1="1644.62" y1="327.91" x2="1641.68" y2="347.3"/>
		<path class="st3" d="M1611.07,352.76c0.61-1.99,2.73-3.9,6.93-3.9c4.2,0,9.83,5.2,9.83,13.16"/>
		<path class="st3" d="M1644.58,352.76c-0.61-1.99-2.73-3.9-6.93-3.9s-9.83,5.2-9.83,13.16"/>
	</g>
	<g>
		<g>
			<path class="st6" d="M725.48,347.3l4.85-2.94l2.94-16.45c0,0-0.35-2.77-3.9-5.89c-3.83-3.36-3.9-7.27-3.9-7.27
				s-0.06,3.91-3.9,7.27c-3.55,3.12-3.9,5.89-3.9,5.89l2.94,16.45L725.48,347.3z"/>
		</g>
		<g>
			<path class="st6" d="M753.06,347.3l4.85-2.94l2.94-16.45c0,0-0.35-2.77-3.9-5.89c-3.83-3.36-3.9-7.27-3.9-7.27
				s-0.06,3.91-3.9,7.27c-3.55,3.12-3.9,5.89-3.9,5.89l2.94,16.45L753.06,347.3z"/>
		</g>
		<g>
			<polygon class="st6" points="739.21,509.56 748.52,509.56 742.72,464.63 739.21,464.63 735.7,464.63 729.9,509.56 			"/>
		</g>
		<path class="st7" d="M725.48,314.75c0,0-0.06,3.91-3.9,7.27c-3.55,3.12-3.9,5.89-3.9,5.89l2.94,16.45l4.85,2.94"/>
		<line class="st7" x1="721.07" y1="347.3" x2="739.34" y2="347.3"/>
		<path class="st7" d="M725.48,314.75c0,0,0.06,3.91,3.9,7.27c3.55,3.12,3.9,5.89,3.9,5.89l-2.94,16.45l-4.85,2.94"/>
		<path class="st7" d="M753.06,314.75c0,0,0.06,3.91,3.9,7.27c3.55,3.12,3.9,5.89,3.9,5.89l-2.94,16.45l-4.85,2.94"/>
		<line class="st7" x1="757.48" y1="347.3" x2="739.21" y2="347.3"/>
		<path class="st7" d="M753.06,314.75c0,0-0.06,3.91-3.9,7.27c-3.55,3.12-3.9,5.89-3.9,5.89l2.94,16.45l4.85,2.94"/>
		<line class="st7" x1="739.21" y1="337.78" x2="739.21" y2="464.63"/>
		<polyline class="st7" points="739.21,464.63 735.7,464.63 729.9,509.56 739.21,509.56 		"/>
		<line class="st7" x1="736.66" y1="410.68" x2="741.76" y2="410.68"/>
		<line class="st7" x1="736.66" y1="415.1" x2="741.76" y2="415.1"/>
		<line class="st7" x1="736.66" y1="419.52" x2="741.76" y2="419.52"/>
		<polyline class="st7" points="739.21,464.63 742.72,464.63 748.52,509.56 739.21,509.56 		"/>
		<line class="st8" x1="730.87" y1="502.03" x2="747.6" y2="502.03"/>
		<line class="st8" x1="737.72" y1="481.42" x2="736.59" y2="498.05"/>
		<line class="st8" x1="740.76" y1="481.42" x2="741.88" y2="498.05"/>
		<line class="st8" x1="734.14" y1="476.76" x2="744.28" y2="476.76"/>
		<line class="st8" x1="717.69" y1="327.91" x2="733.27" y2="327.91"/>
		<line class="st8" x1="745.27" y1="327.91" x2="760.86" y2="327.91"/>
		<line class="st8" x1="722.54" y1="327.91" x2="725.48" y2="347.3"/>
		<line class="st8" x1="728.43" y1="327.91" x2="725.48" y2="347.3"/>
		<line class="st8" x1="750.12" y1="327.91" x2="753.06" y2="347.3"/>
		<line class="st8" x1="756.01" y1="327.91" x2="753.06" y2="347.3"/>
		<path class="st3" d="M722.45,352.76c0.61-1.99,2.73-3.9,6.93-3.9s9.83,5.2,9.83,13.16"/>
		<path class="st3" d="M755.97,352.76c-0.61-1.99-2.73-3.9-6.93-3.9c-4.2,0-9.83,5.2-9.83,13.16"/>
	</g>
	<g>
		<g>
			<path class="st6" d="M1655.56,396.89c34.31,95.9-0.36,96.01,0,95.9h-0.01C1655.91,492.89,1621.24,492.79,1655.56,396.89"/>
		</g>
		<line class="st8" x1="1655.55" y1="509.56" x2="1655.55" y2="448.42"/>
		<path class="st7" d="M1655.55,492.79c0.36,0.11-34.31,0,0-95.9"/>
		<path class="st7" d="M1655.56,492.79c-0.36,0.11,34.31,0,0-95.9"/>
	</g>
	<g>
		<g>
			<path class="st6" d="M288.95,397.58c34.1,95.31-0.35,95.42,0,95.31h-0.01C289.3,493,254.85,492.89,288.95,397.58"/>
		</g>
		<line class="st8" x1="288.95" y1="509.56" x2="288.95" y2="448.79"/>
		<path class="st7" d="M288.95,492.89c0.35,0.11-34.1,0,0-95.31"/>
		<path class="st7" d="M288.95,492.89c-0.35,0.11,34.1,0,0-95.31"/>
	</g>
	<g>
		<g>
			<path class="st6" d="M1174.87,486.63c0,0,39.09-27.15,16.29-38.01c9.77-27.15-4.57-51.04-16.29-51.04
				c-11.72,0-26.06,23.89-16.29,51.04C1135.78,459.48,1174.87,486.63,1174.87,486.63z"/>
		</g>
		<g>
			<path class="st7" d="M1174.87,486.63c0,0-39.09-27.15-16.29-38.01c-9.77-27.15,4.57-51.04,16.29-51.04"/>
			<path class="st7" d="M1174.87,486.63c0,0,39.09-27.15,16.29-38.01c9.77-27.15-4.57-51.04-16.29-51.04"/>
			<line class="st8" x1="1174.87" y1="415.83" x2="1174.87" y2="510.49"/>
			<line class="st8" x1="1186.59" y1="460.3" x2="1174.87" y2="472.09"/>
			<line class="st8" x1="1163.15" y1="460.3" x2="1174.87" y2="472.09"/>
		</g>
	</g>
	<g>
		<g>
			<path class="st6" d="M874.39,493.24c0,0,28.27-19.63,11.78-27.49c7.07-19.63-3.31-36.91-11.78-36.91
				c-8.47,0-18.85,17.28-11.78,36.91C846.12,473.6,874.39,493.24,874.39,493.24z"/>
		</g>
		<g>
			<path class="st7" d="M874.39,493.24c0,0-28.27-19.63-11.78-27.49c-7.07-19.63,3.31-36.91,11.78-36.91"/>
			<path class="st7" d="M874.39,493.24c0,0,28.27-19.63,11.78-27.49c7.07-19.63-3.31-36.91-11.78-36.91"/>
			<line class="st8" x1="874.39" y1="442.04" x2="874.39" y2="510.49"/>
			<line class="st8" x1="882.86" y1="474.2" x2="874.39" y2="482.72"/>
			<line class="st8" x1="865.92" y1="474.2" x2="874.39" y2="482.72"/>
		</g>
	</g>
	<g>
		<g>
			<path class="st6" d="M118.71,484.71c0,0,42.24-29.34,17.6-41.07c10.56-29.34-4.94-55.15-17.6-55.15
				c-12.66,0-28.16,25.82-17.6,55.15C76.46,455.37,118.71,484.71,118.71,484.71z"/>
		</g>
		<g>
			<path class="st7" d="M118.71,484.71c0,0-42.24-29.34-17.6-41.07c-10.56-29.34,4.94-55.15,17.6-55.15"/>
			<path class="st7" d="M118.71,484.71c0,0,42.24-29.34,17.6-41.07c10.56-29.34-4.94-55.15-17.6-55.15"/>
			<line class="st8" x1="118.71" y1="408.21" x2="118.71" y2="510.49"/>
			<line class="st8" x1="131.37" y1="456.26" x2="118.71" y2="469"/>
			<line class="st8" x1="106.05" y1="456.26" x2="118.71" y2="469"/>
		</g>
	</g>
	<g>
		<polygon class="st6" points="163.06,425.19 158.21,425.19 152.96,509.56 160.63,509.56 168.31,509.56 		"/>
		<circle class="st6" cx="160.63" cy="321.31" r="2.88"/>
		<circle class="st6" cx="160.63" cy="421.11" r="4.75"/>
		<g>
			<polyline class="st6" points="166.63,359.94 172.63,335.43 163.3,328.19 160.63,328.19 157.97,328.19 148.63,335.43 
				154.63,359.94 			"/>
		</g>
		<path class="st4" d="M152.97,368.19c-0.21-3.4,2.48-3.88,4.17-3.25c3.37,1.25,3.5,6.75,3.5,6.75v44.67"/>
		<polyline class="st7" points="160.63,328.19 157.97,328.19 148.63,335.43 154.63,359.94 160.63,359.94 		"/>
		<polyline class="st7" points="160.63,328.19 163.3,328.19 172.63,335.43 166.63,359.94 160.63,359.94 		"/>
		<path class="st4" d="M168.3,368.19c0.21-3.4-2.48-3.88-4.17-3.25c-3.37,1.25-3.5,6.75-3.5,6.75v44.67"/>
		<circle class="st7" cx="160.63" cy="321.31" r="2.88"/>
		<line class="st7" x1="160.63" y1="318.43" x2="160.63" y2="313.56"/>
		<circle class="st7" cx="160.63" cy="421.11" r="4.75"/>
		<polyline class="st7" points="158.21,425.19 152.96,509.56 160.63,509.56 		"/>
		<polyline class="st7" points="163.06,425.19 168.31,509.56 160.63,509.56 		"/>
		<line class="st8" x1="148.63" y1="335.43" x2="172.63" y2="335.43"/>
		<polyline class="st8" points="157.75,359.94 155.87,335.43 160.63,328.19 		"/>
		<polyline class="st8" points="163.52,359.94 165.4,335.43 160.63,328.19 		"/>
		<line class="st8" x1="165.76" y1="468.61" x2="155.51" y2="468.61"/>
		<line class="st8" x1="155.38" y1="470.69" x2="165.91" y2="470.69"/>
		<line class="st8" x1="160.63" y1="464.44" x2="160.63" y2="446.27"/>
		<line class="st8" x1="153.24" y1="505.02" x2="168.03" y2="505.02"/>
		<line class="st8" x1="158.73" y1="476.27" x2="157.56" y2="500.52"/>
		<line class="st8" x1="162.56" y1="476.27" x2="163.73" y2="500.52"/>
	</g>
	<g>
		<g>
			<line class="st4" x1="1033.87" y1="210.3" x2="1033.87" y2="220.9"/>
			<line class="st4" x1="1039.17" y1="215.6" x2="1028.58" y2="215.6"/>
		</g>
		<g>
			<line class="st4" x1="1129.32" y1="43.32" x2="1129.32" y2="52.11"/>
			<line class="st4" x1="1133.72" y1="47.71" x2="1124.93" y2="47.71"/>
		</g>
		<g>
			<line class="st4" x1="1629.4" y1="259.38" x2="1629.4" y2="269.98"/>
			<line class="st4" x1="1634.7" y1="264.68" x2="1624.1" y2="264.68"/>
		</g>
		<g>
			<line class="st4" x1="454" y1="233.22" x2="454" y2="243.82"/>
			<line class="st4" x1="459.3" y1="238.52" x2="448.71" y2="238.52"/>
		</g>
		<g>
			<line class="st4" x1="525.36" y1="421.38" x2="525.36" y2="437.19"/>
			<line class="st4" x1="533.26" y1="429.28" x2="517.45" y2="429.28"/>
		</g>
		<g>
			<line class="st4" x1="1112.71" y1="247.34" x2="1112.71" y2="263.14"/>
			<line class="st4" x1="1120.62" y1="255.24" x2="1104.81" y2="255.24"/>
		</g>
	</g>
</g>
<line class="st4" x1="-39.51" y1="509.29" x2="1752.1" y2="509.29"/>
</svg>
